<svg xmlns="http://www.w3.org/2000/svg" width="147" height="43" viewBox="0 0 147 43">
  <g id="Group_16221" data-name="Group 16221" transform="translate(-1266 -701)">
    <rect id="Rectangle_6288" data-name="Rectangle 6288" width="43" height="43" rx="10" transform="translate(1266 701)" fill="#0d323d"/>
    <text id="_2_Baths" data-name="2 Baths" transform="translate(1335 731)" fill="#515151" font-size="24" font-family="SegoeUI, Segoe UI"><tspan x="0" y="0">2 Baths</tspan></text>
    <path id="bath" d="M20.356,13.309v2.349a4.561,4.561,0,0,1-1.566,3.5V21.53a.377.377,0,0,1-.392.392h-.783a.377.377,0,0,1-.392-.392V20.086a4.719,4.719,0,0,1-1.566.269h-9.4A4.715,4.715,0,0,1,4.7,20.086v1.346a.529.529,0,0,1-.116.349.348.348,0,0,1-.276.141H3.523a.348.348,0,0,1-.275-.141.527.527,0,0,1-.116-.349V19.156a4.56,4.56,0,0,1-1.566-3.5V13.309h18.79ZM8.612,8.221a.377.377,0,1,1-.11-.281A.381.381,0,0,1,8.612,8.221ZM9.4,7.437a.377.377,0,1,1-.11-.281A.381.381,0,0,1,9.4,7.437Zm-.783-.783a.377.377,0,1,1-.11-.281A.381.381,0,0,1,8.612,6.654Zm1.566,0a.377.377,0,1,1-.11-.281A.381.381,0,0,1,10.178,6.654Zm-.783-.783a.377.377,0,1,1-.11-.281A.381.381,0,0,1,9.395,5.871Zm-.783-.783a.377.377,0,1,1-.11-.281A.381.381,0,0,1,8.611,5.088Zm13.309,6.263v.783a.377.377,0,0,1-.392.392H.392A.377.377,0,0,1,0,12.135v-.783a.377.377,0,0,1,.392-.392H1.566V3.132A3.017,3.017,0,0,1,2.484.918,3.016,3.016,0,0,1,4.7,0,3.025,3.025,0,0,1,6.948.954a2.285,2.285,0,0,1,1.2-.147,2.322,2.322,0,0,1,1.137.477l.269-.269a.168.168,0,0,1,.269,0l.514.514a.168.168,0,0,1,0,.269L6.5,5.639a.168.168,0,0,1-.269,0l-.514-.514a.168.168,0,0,1,0-.269l.269-.269a2.314,2.314,0,0,1-.5-1.272,2.277,2.277,0,0,1,.288-1.321,1.567,1.567,0,0,0-2.184.03,1.508,1.508,0,0,0-.459,1.107v7.829h18.4a.377.377,0,0,1,.392.392Zm-10.96-5.48a.377.377,0,1,1-.11-.281A.381.381,0,0,1,10.961,5.872Zm-.783-.783a.377.377,0,1,1-.11-.281A.381.381,0,0,1,10.178,5.089Zm-.783-.783a.377.377,0,1,1-.11-.281A.381.381,0,0,1,9.395,4.306Zm2.349.783a.377.377,0,1,1-.11-.281A.381.381,0,0,1,11.743,5.089Zm-.783-.783a.377.377,0,1,1-.11-.281A.381.381,0,0,1,10.96,4.306Zm-.783-.783a.377.377,0,1,1-.11-.281A.381.381,0,0,1,10.177,3.523Zm2.349.783a.377.377,0,1,1-.11-.281A.381.381,0,0,1,12.526,4.306Zm-.783-.783a.377.377,0,1,1-.11-.281A.381.381,0,0,1,11.743,3.523Zm1.566,0a.377.377,0,1,1-.11-.281A.381.381,0,0,1,13.308,3.523Z" transform="translate(1277 712)" fill="#fff"/>
  </g>
</svg>
