<svg xmlns="http://www.w3.org/2000/svg" width="137" height="43" viewBox="0 0 137 43">
  <g id="Group_16222" data-name="Group 16222" transform="translate(-960 -701)">
    <rect id="Rectangle_6286" data-name="Rectangle 6286" width="43" height="43" rx="10" transform="translate(960 701)" fill="#0d323d"/>
    <text id="_3_BEDS" data-name="3 BEDS" transform="translate(1022 731)" fill="#515151" font-size="24" font-family="SegoeUI, Segoe UI"><tspan x="0" y="0">3 BEDS</tspan></text>
    <path id="bed" d="M2.36,7.079H18.287a.6.6,0,0,1,.59.59V11.8h-2.36V9.438H2.36V11.8H0V.59A.567.567,0,0,1,.175.175.567.567,0,0,1,.59,0H1.77a.567.567,0,0,1,.415.175A.567.567,0,0,1,2.36.59ZM7.669,4.129a2.275,2.275,0,0,0-.691-1.668A2.271,2.271,0,0,0,5.309,1.77a2.276,2.276,0,0,0-1.668.691,2.272,2.272,0,0,0-.691,1.668A2.272,2.272,0,0,0,3.641,5.8a2.276,2.276,0,0,0,1.668.691A2.271,2.271,0,0,0,6.978,5.8,2.275,2.275,0,0,0,7.669,4.129Zm11.208,2.36V5.9A3.409,3.409,0,0,0,17.84,3.4a3.413,3.413,0,0,0-2.5-1.037H8.848a.6.6,0,0,0-.59.59V6.489Z" transform="translate(972.062 716.601)" fill="#fff"/>
  </g>
</svg>
