<svg id="Group_16092" data-name="Group 16092" xmlns="http://www.w3.org/2000/svg" width="34.373" height="34.373" viewBox="0 0 34.373 34.373">
  <path id="Path_10400" data-name="Path 10400" d="M7.812,0H26.561a7.812,7.812,0,0,1,7.812,7.812V26.561a7.812,7.812,0,0,1-7.812,7.812H7.812A7.812,7.812,0,0,1,0,26.561V7.812A7.812,7.812,0,0,1,7.812,0Z" transform="translate(0)" fill="#0d323d"/>
  <path id="bath" d="M13.783,9.012V10.6a3.089,3.089,0,0,1-1.06,2.369v1.607a.255.255,0,0,1-.265.265h-.53a.255.255,0,0,1-.265-.265V13.6a3.2,3.2,0,0,1-1.06.182H4.241a3.193,3.193,0,0,1-1.06-.182v.911a.358.358,0,0,1-.079.236.236.236,0,0,1-.187.1h-.53a.235.235,0,0,1-.186-.1.357.357,0,0,1-.078-.236V12.971A3.088,3.088,0,0,1,1.06,10.6V9.011H13.783ZM5.831,5.566a.255.255,0,1,1-.075-.19A.258.258,0,0,1,5.831,5.566Zm.53-.53a.255.255,0,1,1-.075-.19A.258.258,0,0,1,6.361,5.036Zm-.53-.53a.255.255,0,1,1-.075-.19A.258.258,0,0,1,5.831,4.506Zm1.06,0a.255.255,0,1,1-.075-.19A.258.258,0,0,1,6.891,4.506Zm-.53-.53a.255.255,0,1,1-.075-.19A.258.258,0,0,1,6.361,3.975Zm-.53-.53a.255.255,0,1,1-.075-.19A.258.258,0,0,1,5.831,3.445Zm9.012,4.241v.53a.255.255,0,0,1-.265.265H.265A.255.255,0,0,1,0,8.216v-.53a.255.255,0,0,1,.265-.265h.8V2.12a2.043,2.043,0,0,1,.621-1.5A2.042,2.042,0,0,1,3.181,0,2.048,2.048,0,0,1,4.7.646a1.547,1.547,0,0,1,.812-.1,1.572,1.572,0,0,1,.77.323L6.469.687a.114.114,0,0,1,.182,0L7,1.035a.114.114,0,0,1,0,.182l-2.6,2.6a.114.114,0,0,1-.182,0L3.868,3.47a.114.114,0,0,1,0-.182l.182-.182a1.567,1.567,0,0,1-.336-.861,1.542,1.542,0,0,1,.2-.894,1.061,1.061,0,0,0-1.479.021,1.021,1.021,0,0,0-.31.75v5.3H14.578a.255.255,0,0,1,.265.265ZM7.422,3.976a.255.255,0,1,1-.075-.19A.258.258,0,0,1,7.422,3.976Zm-.53-.53a.255.255,0,1,1-.075-.19A.258.258,0,0,1,6.891,3.446Zm-.53-.53a.255.255,0,1,1-.075-.19A.258.258,0,0,1,6.361,2.915Zm1.59.53a.255.255,0,1,1-.075-.19A.258.258,0,0,1,7.951,3.446Zm-.53-.53a.255.255,0,1,1-.075-.19A.258.258,0,0,1,7.421,2.915Zm-.53-.53a.255.255,0,1,1-.075-.19A.258.258,0,0,1,6.891,2.385Zm1.59.53a.255.255,0,1,1-.075-.19A.258.258,0,0,1,8.481,2.915Zm-.53-.53a.255.255,0,1,1-.075-.19A.258.258,0,0,1,7.951,2.385Zm1.06,0a.255.255,0,1,1-.075-.19A.258.258,0,0,1,9.011,2.385Z" transform="translate(10.156 10.156)" fill="#fff"/>
</svg>
