<svg fill="#000000" xmlns="http://www.w3.org/2000/svg"  viewBox="0 0 40 50" width="48px" height="48px">
<path d="M 25 8 C 15.611 8 8 15.611 8 25 C 8 34.389 15.611 42 25 42 C 34.389 42 42 34.389 42 25 C 42 15.611 34.389 8 25 8 z M 25 9 C 33.837 9 41 16.163 41 25 C 41 33.127781 34.936023 39.824657 27.087891 40.849609 L 27.087891 30.355469 L 30.828125 30.355469 L 31.388672 25.894531 L 27.087891 25.894531 L 27.087891 22.771484 C 27.087891 21.534484 27.9245 20.900391 28.8125 20.900391 C 29.7005 20.900391 31.539062 20.875 31.539062 20.875 L 31.539062 16.884766 C 31.539063 16.884766 29.903422 16.695312 28.232422 16.695312 C 26.828422 16.695312 25.280969 17.091234 24.042969 18.365234 C 22.783969 19.660234 22.603516 21.57225 22.603516 23.90625 L 22.603516 25.896484 L 18.853516 25.896484 L 18.853516 30.357422 L 22.603516 30.357422 L 22.603516 40.802734 C 14.90637 39.643848 9 33.020453 9 25 C 9 16.163 16.163 9 25 9 z"/>
</svg>