<svg xmlns="http://www.w3.org/2000/svg" xmlns:xlink="http://www.w3.org/1999/xlink" width="148" height="44" viewBox="0 0 148 44">
  <defs>
    <linearGradient id="linear-gradient" x1="0.915" y1="0.619" x2="-0.386" y2="-0.051" gradientUnits="objectBoundingBox">
      <stop offset="0" stop-color="#00a0ff"/>
      <stop offset="0.01" stop-color="#00a1ff"/>
      <stop offset="0.26" stop-color="#00beff"/>
      <stop offset="0.51" stop-color="#00d2ff"/>
      <stop offset="0.76" stop-color="#00dfff"/>
      <stop offset="1" stop-color="#00e3ff"/>
    </linearGradient>
    <linearGradient id="linear-gradient-2" x1="1.077" y1="-0.471" x2="-1.306" y2="-0.471" gradientUnits="objectBoundingBox">
      <stop offset="0" stop-color="#ffe000"/>
      <stop offset="0.41" stop-color="#ffbd00"/>
      <stop offset="0.78" stop-color="orange"/>
      <stop offset="1" stop-color="#ff9c00"/>
    </linearGradient>
    <linearGradient id="linear-gradient-3" x1="0.863" y1="-0.824" x2="-0.502" y2="-2.593" gradientUnits="objectBoundingBox">
      <stop offset="0" stop-color="#ff3a44"/>
      <stop offset="1" stop-color="#c31162"/>
    </linearGradient>
    <linearGradient id="linear-gradient-4" x1="-0.188" y1="1.894" x2="0.421" y2="1.105" gradientUnits="objectBoundingBox">
      <stop offset="0" stop-color="#32a071"/>
      <stop offset="0.07" stop-color="#2da771"/>
      <stop offset="0.48" stop-color="#15cf74"/>
      <stop offset="0.8" stop-color="#06e775"/>
      <stop offset="1" stop-color="#00f076"/>
    </linearGradient>
  </defs>
  <g id="Group_11403" data-name="Group 11403" transform="translate(-1427 -3079.884)">
    <rect id="Rectangle_13912" data-name="Rectangle 13912" width="148" height="44" rx="5" transform="translate(1427 3079.884)" fill="#fff"/>
    <g id="Group_11405" data-name="Group 11405">
      <path id="Path_11793" data-name="Path 11793" d="M47.975,10.548a2.968,2.968,0,0,1-.819,2.183,3.165,3.165,0,0,1-2.4.96,3.373,3.373,0,0,1-3.4-3.4,3.274,3.274,0,0,1,.993-2.434A3.449,3.449,0,0,1,46.1,7.143a2.772,2.772,0,0,1,1.026.731l-.578.578a2.183,2.183,0,0,0-1.79-.786,2.532,2.532,0,0,0-2.543,2.619,2.576,2.576,0,0,0,4.365,1.888,2.106,2.106,0,0,0,.557-1.331H44.755v-.786h3.176A4.091,4.091,0,0,1,47.975,10.548Z" transform="translate(1431.056 3080.858)" fill="#0c0c0c"/>
      <path id="Path_11794" data-name="Path 11794" d="M52.318,7.808H49.371V9.881h2.685v.786H49.371V12.74h2.947v.808h-3.8V7h3.8Z" transform="translate(1431.711 3080.87)" fill="#0c0c0c"/>
      <path id="Path_11795" data-name="Path 11795" d="M55.5,13.548h-.84V7.808H52.83V7h4.551v.808H55.5Z" transform="translate(1432.105 3080.87)" fill="#0c0c0c"/>
      <path id="Path_11796" data-name="Path 11796" d="M59.94,13.548V7h.84v6.548Z" transform="translate(1432.754 3080.87)" fill="#0c0c0c"/>
      <path id="Path_11797" data-name="Path 11797" d="M64.354,13.548h-.84V7.808H61.68V7h4.5v.808H64.354Z" transform="translate(1432.913 3080.87)" fill="#0c0c0c"/>
      <path id="Path_11798" data-name="Path 11798" d="M74.092,12.709a3.394,3.394,0,0,1-4.8,0,3.274,3.274,0,0,1-.96-2.423,3.274,3.274,0,0,1,.96-2.423,3.2,3.2,0,0,1,2.4-.993,3.274,3.274,0,0,1,2.4.993,3.35,3.35,0,0,1,.96,2.423,3.274,3.274,0,0,1-.96,2.423Zm-4.18-.546a2.5,2.5,0,0,0,3.558,0,2.576,2.576,0,0,0,.731-1.877,2.576,2.576,0,0,0-.775-1.877,2.5,2.5,0,0,0-3.558,0,2.576,2.576,0,0,0-.688,1.877,2.576,2.576,0,0,0,.731,1.877Z" transform="translate(1433.521 3080.858)" fill="#0c0c0c"/>
      <path id="Path_11799" data-name="Path 11799" d="M75.58,13.548V7h1.015l3.187,5.1h0V7h.84v6.548h-.873L76.42,8.211h0v5.337Z" transform="translate(1434.183 3080.87)" fill="#0c0c0c"/>
    </g>
    <path id="Path_11800" data-name="Path 11800" d="M70.631,22.18a4.649,4.649,0,1,0,4.66,4.638,4.573,4.573,0,0,0-4.66-4.638Zm0,7.454a2.816,2.816,0,1,1,2.619-2.816,2.685,2.685,0,0,1-2.619,2.816ZM60.459,22.18a4.649,4.649,0,1,0,4.66,4.638,4.573,4.573,0,0,0-4.66-4.638Zm0,7.454a2.816,2.816,0,1,1,2.619-2.816,2.685,2.685,0,0,1-2.619,2.816ZM48.367,23.609v1.964h4.715a4.114,4.114,0,0,1-1.091,2.477,4.824,4.824,0,0,1-3.645,1.441,5.238,5.238,0,0,1,0-10.477,5.064,5.064,0,0,1,3.58,1.408l1.386-1.386a6.875,6.875,0,0,0-4.944-1.986,7.214,7.214,0,1,0,0,14.417A6.624,6.624,0,0,0,53.4,29.448a6.548,6.548,0,0,0,1.7-4.616,6.843,6.843,0,0,0-.1-1.222Zm49.449,1.528a4.288,4.288,0,0,0-8.338,1.681A4.616,4.616,0,0,0,97.947,29.4l-1.582-1.091a2.63,2.63,0,0,1-2.281,1.277,2.346,2.346,0,0,1-2.248-1.408l6.21-2.565Zm-6.33,1.55a2.543,2.543,0,0,1,2.434-2.707,1.79,1.79,0,0,1,1.713.982Zm-5.042,4.5h2.041V17.542H86.444ZM83.1,23.217h-.076a3.209,3.209,0,0,0-2.445-1.037,4.649,4.649,0,0,0,0,9.287,3.143,3.143,0,0,0,2.445-1.091H83.1v.666c0,1.779-.949,2.728-2.477,2.728a2.576,2.576,0,0,1-2.346-1.648l-1.768.731a4.365,4.365,0,0,0,4.114,2.75c2.39,0,4.365-1.408,4.365-4.835V22.453H83.1Zm-2.346,6.417a2.816,2.816,0,0,1,0-5.62,2.608,2.608,0,0,1,2.488,2.8,2.6,2.6,0,0,1-2.488,2.816Zm26.618-12.092h-4.889V31.183h2.041V26.01h2.848a4.245,4.245,0,1,0,0-8.469Zm0,6.548h-2.848V19.441h2.892a2.335,2.335,0,1,1,0,4.671Zm12.594-1.954a3.809,3.809,0,0,0-3.634,2.084l1.8.753A1.943,1.943,0,0,1,120,23.981a1.964,1.964,0,0,1,2.183,1.757v.131a4.562,4.562,0,0,0-2.128-.524c-1.943,0-3.929,1.091-3.929,3.078a3.154,3.154,0,0,0,3.394,3,2.892,2.892,0,0,0,2.6-1.331h.065v1.091h1.964V25.934c0-2.39-1.812-3.776-4.136-3.776Zm-.251,7.476c-.666,0-1.593-.338-1.593-1.157,0-1.091,1.157-1.462,2.183-1.462a3.623,3.623,0,0,1,1.855.458,2.466,2.466,0,0,1-2.4,2.183Zm11.59-7.159-2.335,5.915h-.065l-2.423-5.915H124.3l3.634,8.272-2.074,4.595h2.183l5.533-12.867Zm-18.335,8.731H115V17.542h-2.03Z" transform="translate(1431.013 3081.788)" fill="#0c0c0c"/>
    <path id="Path_11801" data-name="Path 11801" d="M10.481,7.546A2.183,2.183,0,0,0,10,9.074V33.215a2.117,2.117,0,0,0,.513,1.528l.076.087L24.079,21.308v-.327L10.557,7.47Z" transform="translate(1428.192 3080.913)" fill="url(#linear-gradient)"/>
    <path id="Path_11802" data-name="Path 11802" d="M27.375,25.062,22.9,20.555v-.327l4.475-4.507.1.065,5.359,3.034c1.528.862,1.528,2.281,0,3.154l-5.337,3.034Z" transform="translate(1429.371 3081.666)" fill="url(#linear-gradient-2)"/>
    <path id="Path_11803" data-name="Path 11803" d="M28.644,24.616,24.038,20,10.44,33.6a1.768,1.768,0,0,0,2.259.076l15.945-9.058" transform="translate(1428.233 3082.057)" fill="url(#linear-gradient-3)"/>
    <path id="Path_11804" data-name="Path 11804" d="M28.644,16.57,12.7,7.512a1.757,1.757,0,0,0-2.259.065l13.6,13.6Z" transform="translate(1428.233 3080.882)" fill="url(#linear-gradient-4)"/>
    <path id="Path_11805" data-name="Path 11805" d="M28.513,24.13l-15.814,9a1.812,1.812,0,0,1-2.183,0h0l-.076.076h0l.076.087h0a1.812,1.812,0,0,0,2.183,0l15.945-9.058Z" transform="translate(1428.233 3082.435)" opacity="0.2"/>
    <path id="Path_11806" data-name="Path 11806" d="M10.481,32.449A2.183,2.183,0,0,1,10,30.91v.164a2.117,2.117,0,0,0,.513,1.528l.076-.076Z" transform="translate(1428.192 3083.054)" opacity="0.12"/>
    <path id="Path_11807" data-name="Path 11807" d="M32.457,21.419,27,24.507l.1.109,5.359-3.045A1.91,1.91,0,0,0,33.614,20h0A2.03,2.03,0,0,1,32.457,21.419Z" transform="translate(1429.745 3082.057)" opacity="0.12"/>
    <path id="Path_11808" data-name="Path 11808" d="M12.739,7.664,34.01,19.756a2.03,2.03,0,0,1,1.157,1.419h0A1.91,1.91,0,0,0,34.01,19.6L12.739,7.511C11.222,6.638,10,7.358,10,9.1v.164C10,7.522,11.222,6.8,12.739,7.664Z" transform="translate(1428.193 3080.883)" fill="#fff" opacity="0.25"/>
  </g>
</svg>
