<svg xmlns="http://www.w3.org/2000/svg" width="1573" height="86" viewBox="0 0 1573 86">
  <g id="Group_16040" data-name="Group 16040" transform="translate(-105 -1580)">
    <rect id="Rectangle_6304" data-name="Rectangle 6304" width="85" height="85" rx="10" transform="translate(105 1580)" fill="#0d323d"/>
    <rect id="Rectangle_6305" data-name="Rectangle 6305" width="85" height="85" rx="10" transform="translate(367 1580)" fill="#0d323d"/>
    <rect id="Rectangle_6306" data-name="Rectangle 6306" width="85" height="85" rx="10" transform="translate(703 1581)" fill="#0d323d"/>
    <rect id="Rectangle_6307" data-name="Rectangle 6307" width="85" height="85" rx="10" transform="translate(1046 1580)" fill="#0d323d"/>
    <rect id="Rectangle_6308" data-name="Rectangle 6308" width="85" height="85" rx="10" transform="translate(1348 1580)" fill="#0d323d"/>
    <text id="Duplex" transform="translate(207 1633)" fill="#515151" font-size="28" font-family="SegoeUI, Segoe UI"><tspan x="0" y="0">Duplex</tspan></text>
    <text id="_6_bedrooms" data-name="6 bedrooms" transform="translate(469 1633)" fill="#515151" font-size="28" font-family="SegoeUI, Segoe UI"><tspan x="0" y="0">6 bedrooms</tspan></text>
    <text id="_4_bathrooms" data-name="4 bathrooms" transform="translate(805 1634)" fill="#515151" font-size="28" font-family="SegoeUI, Segoe UI"><tspan x="0" y="0">4 bathrooms</tspan></text>
    <text id="Forced_air" data-name="Forced air" transform="translate(1148 1633)" fill="#515151" font-size="28" font-family="SegoeUI, Segoe UI"><tspan x="0" y="0">Forced air</tspan></text>
    <text id="_2_Attached_garage_spaces" data-name="2 Attached garage
spaces" transform="translate(1450 1617)" fill="#515151" font-size="28" font-family="SegoeUI, Segoe UI"><tspan x="0" y="0">2 Attached garage</tspan><tspan x="0" y="37">spaces</tspan></text>
    <path id="air" d="M5.542,13.238c3.98-3.417,7.123-6.118,15.653-1.3,4.1,2.314,7.4,3.189,10.152,3.184,4.817,0,7.94-2.679,10.639-4.994a2.362,2.362,0,0,0,.278-3.277,2.249,2.249,0,0,0-3.212-.285c-3.977,3.422-7.123,6.122-15.653,1.3C12.131,1.5,6.85,6.036,2.61,9.681a2.362,2.362,0,0,0-.276,3.277,2.246,2.246,0,0,0,3.209.28Zm33.51,4.96c-3.977,3.417-7.123,6.122-15.653,1.3C12.13,13.13,6.849,17.665,2.609,21.307a2.362,2.362,0,0,0-.276,3.277,2.246,2.246,0,0,0,3.209.285c3.98-3.419,7.123-6.121,15.653-1.3,4.1,2.318,7.4,3.189,10.152,3.189,4.817,0,7.94-2.679,10.639-5a2.357,2.357,0,0,0,.278-3.275,2.246,2.246,0,0,0-3.212-.282Zm0,11.63c-3.977,3.422-7.123,6.122-15.653,1.3C12.13,24.765,6.849,29.3,2.609,32.942a2.362,2.362,0,0,0-.276,3.277,2.244,2.244,0,0,0,3.209.28c3.98-3.417,7.123-6.116,15.653-1.3,4.1,2.314,7.4,3.189,10.152,3.189,4.817,0,7.94-2.683,10.639-5a2.362,2.362,0,0,0,.278-3.277,2.25,2.25,0,0,0-3.212-.285Z" transform="translate(1066.201 1600.965)" fill="#fff"/>
    <g id="bxs-car-garage" transform="translate(1368 1600.001)">
      <path id="Path_10401" data-name="Path 10401" d="M4.991,35.834v2.543a1.991,1.991,0,0,0,1.991,1.991H8.974a1.991,1.991,0,0,0,1.991-1.991V36.386H34.859v1.991a1.991,1.991,0,0,0,1.991,1.991h1.991a1.991,1.991,0,0,0,1.991-1.991V35.835A3.963,3.963,0,0,0,42.824,32.4V26.43a3.986,3.986,0,0,0-2.445-3.674l-2.724-8.172A5.963,5.963,0,0,0,31.991,10.5H13.835a5.963,5.963,0,0,0-5.666,4.085L5.445,22.757A3.985,3.985,0,0,0,3,26.43V32.4a3.968,3.968,0,0,0,1.991,3.432ZM9.969,32.4a2.988,2.988,0,1,1,2.989-2.987A2.988,2.988,0,0,1,9.969,32.4Zm25.886,0a2.988,2.988,0,1,1,2.989-2.987A2.988,2.988,0,0,1,35.855,32.4ZM13.835,14.482H31.989a1.991,1.991,0,0,1,1.889,1.362l2.2,6.6H9.744l2.2-6.6a1.994,1.994,0,0,1,1.889-1.362Z" transform="translate(0 2.457)" fill="#fff"/>
      <path id="Path_10402" data-name="Path 10402" d="M42.824,13.729v-4.2L23.541,3.1a1.983,1.983,0,0,0-1.31.017L3,10.113V14.35L22.943,7.1Z" transform="translate(0 0)" fill="#fff"/>
    </g>
    <g id="room" transform="translate(385.92 1600.755)">
      <path id="Path_10409" data-name="Path 10409" d="M40.8,39.368V7.932H32.562V.914L7.862,5.173v34.2H1.125v2.994h8.13l23.306,3.214V10.926H37.8V42.362h8.234V39.368ZM29.568,42.142,10.855,39.56V7.695L29.568,4.469Z" transform="translate(0 0)" fill="#fff"/>
      <path id="Path_10410" data-name="Path 10410" d="M18,16.313h2.994V22.3H18Z" transform="translate(5.58 5.092)" fill="#fff"/>
    </g>
    <path id="bath" d="M35.079,22.936v4.047a7.861,7.861,0,0,1-2.7,6.03V37.1a.65.65,0,0,1-.675.675H30.357a.65.65,0,0,1-.675-.675V34.614a8.132,8.132,0,0,1-2.7.464H10.794a8.126,8.126,0,0,1-2.7-.464v2.319a.912.912,0,0,1-.2.6.6.6,0,0,1-.475.242H6.071a.6.6,0,0,1-.474-.242.908.908,0,0,1-.2-.6V33.012a7.859,7.859,0,0,1-2.7-6.03V22.935h32.38Zm-20.238-8.77a.65.65,0,1,1-.19-.485A.657.657,0,0,1,14.841,14.166Zm1.349-1.349a.65.65,0,1,1-.19-.485A.657.657,0,0,1,16.191,12.817Zm-1.349-1.349a.65.65,0,1,1-.19-.485A.657.657,0,0,1,14.841,11.467Zm2.7,0a.65.65,0,1,1-.19-.485A.657.657,0,0,1,17.539,11.467ZM16.19,10.118A.65.65,0,1,1,16,9.633.657.657,0,0,1,16.19,10.118ZM14.84,8.768a.65.65,0,1,1-.19-.485A.657.657,0,0,1,14.84,8.768ZM37.776,19.562v1.349a.65.65,0,0,1-.675.675H.675A.65.65,0,0,1,0,20.912V19.562a.65.65,0,0,1,.675-.675H2.7V5.4A5.2,5.2,0,0,1,4.28,1.581,5.2,5.2,0,0,1,8.095,0a5.214,5.214,0,0,1,3.878,1.644,3.937,3.937,0,0,1,2.066-.253A4,4,0,0,1,16,2.213l.464-.464a.29.29,0,0,1,.464,0l.886.886a.29.29,0,0,1,0,.464L11.194,9.718a.29.29,0,0,1-.464,0l-.886-.886a.29.29,0,0,1,0-.464l.464-.464a3.988,3.988,0,0,1-.854-2.192,3.923,3.923,0,0,1,.5-2.276,2.7,2.7,0,0,0-3.763.052A2.6,2.6,0,0,0,5.4,5.4V18.888H37.1a.65.65,0,0,1,.675.675ZM18.888,10.119a.65.65,0,1,1-.19-.485A.657.657,0,0,1,18.888,10.119ZM17.539,8.77a.65.65,0,1,1-.19-.485A.657.657,0,0,1,17.539,8.77ZM16.19,7.42A.65.65,0,1,1,16,6.935.657.657,0,0,1,16.19,7.42ZM20.237,8.77a.65.65,0,1,1-.19-.485A.657.657,0,0,1,20.237,8.77ZM18.887,7.42a.65.65,0,1,1-.19-.485A.657.657,0,0,1,18.887,7.42ZM17.538,6.071a.65.65,0,1,1-.19-.485A.657.657,0,0,1,17.538,6.071ZM21.585,7.42a.65.65,0,1,1-.19-.485A.657.657,0,0,1,21.585,7.42ZM20.236,6.071a.65.65,0,1,1-.19-.485A.657.657,0,0,1,20.236,6.071Zm2.7,0a.65.65,0,1,1-.19-.485A.657.657,0,0,1,22.934,6.071Z" transform="translate(726.612 1605)" fill="#fff"/>
    <g id="double-quote-sans-left" transform="translate(125.734 1604.175)">
      <path id="Path_10411" data-name="Path 10411" d="M19.7,20.979V1.125H1.125v34.4h3.3ZM3.877,3.877H16.95V19.8L3.877,32.249Z" fill="#fff"/>
      <path id="Path_10412" data-name="Path 10412" d="M19.688,35.526h3.3L38.264,20.979V1.125H19.688ZM22.44,3.877H35.513V19.8L22.44,32.249Z" transform="translate(4.142)" fill="#fff"/>
    </g>
  </g>
</svg>
