<svg xmlns="http://www.w3.org/2000/svg" width="174" height="43" viewBox="0 0 174 43">
  <g id="Group_16218" data-name="Group 16218" transform="translate(-1266 -620)">
    <rect id="Rectangle_6287" data-name="Rectangle 6287" width="43" height="43" rx="10" transform="translate(1266 620)" fill="#0d323d"/>
    <text id="Nice_View" data-name="Nice View" transform="translate(1335 650)" fill="#515151" font-size="24" font-family="SegoeUI, Segoe UI"><tspan x="0" y="0">Nice View</tspan></text>
    <path id="panorama" d="M19.935,15.346a29.81,29.81,0,0,0-4.788-1.883,17.8,17.8,0,0,0-4.868-.621,17.96,17.96,0,0,0-4.888.621A28.4,28.4,0,0,0,.624,15.346a.433.433,0,0,1-.421.02.4.4,0,0,1-.18-.38V.422A.4.4,0,0,1,.2.052a.391.391,0,0,1,.421.03A29.982,29.982,0,0,0,5.392,1.955a17.73,17.73,0,0,0,4.888.631,17.772,17.772,0,0,0,4.868-.621A29.882,29.882,0,0,0,19.935.082a.391.391,0,0,1,.421-.03.4.4,0,0,1,.18.371V14.986a.4.4,0,0,1-.18.38.435.435,0,0,1-.421-.02ZM10.28,3.867A24.206,24.206,0,0,1,5.672,3.4,16.689,16.689,0,0,1,1.306,1.945V13.483a15.081,15.081,0,0,1,2.284-.922L6.795,9.336a1.26,1.26,0,0,1,.931-.36,1.26,1.26,0,0,1,.931.36L10.6,11.3l3.245-3.245a1.384,1.384,0,0,1,1.863,0l3.546,3.566V1.945a16.319,16.319,0,0,1-4.367,1.462,24.481,24.481,0,0,1-4.607.461ZM4.511,9a1.838,1.838,0,0,1-1.362-.571,1.876,1.876,0,0,1-.561-1.362A1.914,1.914,0,0,1,4.511,5.149a1.857,1.857,0,0,1,1.362.561,1.842,1.842,0,0,1,.561,1.352,1.874,1.874,0,0,1-.561,1.362A1.843,1.843,0,0,1,4.511,9Z" transform="translate(1277.22 633.793)" fill="#fff"/>
  </g>
</svg>
