<svg xmlns="http://www.w3.org/2000/svg" width="154.847" height="24.186" viewBox="0 0 154.847 24.186">
  <g id="Group_37" data-name="Group 37" transform="translate(-178.379 -457.526)">
    <path id="Path_26" data-name="Path 26" d="M527.647,496.531l-1.544-.772a4.743,4.743,0,0,1-1.255-.779.918.918,0,0,1-.255-.624.9.9,0,0,1,.4-.748,1.814,1.814,0,0,1,1.11-.3,4.406,4.406,0,0,1,2.883,1.573l2.606-2.606a6.809,6.809,0,0,0-5.519-2.776,5.569,5.569,0,0,0-3.924,1.411,4.453,4.453,0,0,0-1.534,3.4q0,3.088,4.071,5.134l1.419.709q1.834.924,1.834,1.9a1.163,1.163,0,0,1-.509.925,2.105,2.105,0,0,1-1.341.4,3.845,3.845,0,0,1-1.765-.532,5.991,5.991,0,0,1-1.737-1.4L520,504.271a7,7,0,0,0,5.858,2.867,6.287,6.287,0,0,0,4.4-1.495,5.106,5.106,0,0,0,.732-6.659A9.083,9.083,0,0,0,527.647,496.531Z" transform="translate(-317.406 -25.931)" fill="#fff"/>
    <path id="Path_27" data-name="Path 27" d="M585.262,500.49l-3.564-9.435h-2.521l-3.629,9.542-3.378-9.542h-4.12l6.043,16.773h2.636l3.685-9.554,3.576,9.554h2.667l6.121-16.773h-4.15Z" transform="translate(-352.103 -27.054)" fill="#fff"/>
    <path id="Path_28" data-name="Path 28" d="M675.958,491.783a7.735,7.735,0,0,0-2.449-1.711,7.088,7.088,0,0,0-2.833-.57,7.312,7.312,0,0,0-5.574,2.482,9.012,9.012,0,0,0-2.295,6.369,8.794,8.794,0,0,0,2.371,6.267,7.465,7.465,0,0,0,5.62,2.521,6.918,6.918,0,0,0,2.688-.516,8.256,8.256,0,0,0,2.472-1.688v1.773h4.214V489.933h-4.209ZM674.837,501.9a4.335,4.335,0,0,1-3.289,1.38,4.257,4.257,0,0,1-3.235-1.4,5.51,5.51,0,0,1-.022-7.115,4.252,4.252,0,0,1,3.242-1.38,4.391,4.391,0,0,1,3.3,1.357,4.9,4.9,0,0,1,1.306,3.546,5.044,5.044,0,0,1-1.3,3.616Z" transform="translate(-420.515 -25.931)" fill="#fff"/>
    <path id="Path_29" data-name="Path 29" d="M734.741,472.035H739.8v20.459h2.316V472.035h5.057v-2.22H734.741Z" transform="translate(-472.451 -11.717)" fill="#fff"/>
    <path id="Path_30" data-name="Path 30" d="M802.44,492.754a8.274,8.274,0,0,0-6.852-3.253,8.01,8.01,0,0,0-6.65,3.176,8.965,8.965,0,0,0-1.96,5.694,9.071,9.071,0,0,0,2.316,6.08,8.01,8.01,0,0,0,6.419,2.691,9.2,9.2,0,0,0,3.318-.563,8.218,8.218,0,0,0,2.639-1.641,9.913,9.913,0,0,0,2.067-2.837l-1.819-.955a10.058,10.058,0,0,1-1.834,2.38,6.545,6.545,0,0,1-2.06,1.183,7.166,7.166,0,0,1-2.493.446,5.957,5.957,0,0,1-4.461-1.869,6.826,6.826,0,0,1-1.867-4.791H804.3A9.071,9.071,0,0,0,802.44,492.754Zm-13.028,3.87a7.173,7.173,0,0,1,1.961-3.469,6.154,6.154,0,0,1,4.246-1.587,6.691,6.691,0,0,1,2.855.632,5.964,5.964,0,0,1,2.185,1.665,7.169,7.169,0,0,1,1.254,2.76Z" transform="translate(-510.171 -25.931)" fill="#fff"/>
    <path id="Path_31" data-name="Path 31" d="M870.212,491.536a7.17,7.17,0,0,1,6.053,2.944l1.711-1.062a7.237,7.237,0,0,0-1.833-2.082,8.962,8.962,0,0,0-2.629-1.326,10.232,10.232,0,0,0-3.214-.509,9.832,9.832,0,0,0-4.8,1.172,8.638,8.638,0,0,0-3.368,3.261,8.782,8.782,0,0,0-1.226,4.525,8.225,8.225,0,0,0,2.622,6.151,9.118,9.118,0,0,0,6.6,2.528,10.313,10.313,0,0,0,4.617-1,8.078,8.078,0,0,0,3.231-2.809l-1.711-1.125a7.731,7.731,0,0,1-9.679,2.052,6.53,6.53,0,0,1-2.555-2.509,6.8,6.8,0,0,1-.931-3.449,6.434,6.434,0,0,1,2.027-4.789A7,7,0,0,1,870.212,491.536Z" transform="translate(-563.546 -25.931)" fill="#fff"/>
    <path id="Path_32" data-name="Path 32" d="M951.157,477.328a5.7,5.7,0,0,0-2.15-2.567,5.944,5.944,0,0,0-3.337-.956,7.018,7.018,0,0,0-3.408.856,9.188,9.188,0,0,0-2.883,2.582v-9.482h-2.158v23.249h2.158V484.86a22.161,22.161,0,0,1,.309-4.564,6.067,6.067,0,0,1,2.043-3.207,5.319,5.319,0,0,1,3.507-1.3,4.311,4.311,0,0,1,2.767.841,4.388,4.388,0,0,1,1.457,2.509,20.5,20.5,0,0,1,.231,3.87v8h2.159v-8.633a13.6,13.6,0,0,0-.695-5.054Z" transform="translate(-618.644 -10.235)" fill="#fff"/>
    <g id="Group_36" data-name="Group 36" transform="translate(178.379 459.803)">
      <g id="Group_19" data-name="Group 19" transform="translate(0.001 0.64)">
        <path id="Path_33" data-name="Path 33" d="M432.9,499.522a7.079,7.079,0,0,1,1.881-4.815,6.953,6.953,0,0,1,.579-.563A7.084,7.084,0,0,1,440,492.416h3.947a7.488,7.488,0,0,0,3.138-.7c.1-.043.193-.091.289-.139a7.551,7.551,0,0,0,4.076-6.705v-.148a7.348,7.348,0,0,0-.08-.971,7.459,7.459,0,0,0-.547-1.9q-.072-.166-.154-.328c-.02-.044-.042-.088-.066-.13-.054-.106-.112-.21-.172-.314a7.586,7.586,0,0,0-2.888-2.821l.015,0c.064.023.129.046.193.071l.187.072.07.029.154.065q.2.087.4.182c.067.031.133.063.2.1l.151.077c.054.027.07.035.1.055l.179.1.147.083q.227.132.446.273c.052.033.1.068.155.1l.069.046c.053.035.1.071.156.108s.1.074.155.113.076.055.114.084c.117.088.231.179.344.27.04.031.077.063.115.1s.08.068.12.1l.01.007c.055.047.109.1.163.146q.289.261.564.545c.04.041.078.083.117.124.014.013.025.027.038.041.04.042.079.087.118.13.068.074.132.15.193.227l.1.125c.1.113.182.227.27.344l.088.118.089.122.022.032c.036.05.07.1.1.151l.063.1.014.02q.064.1.124.193c.028.042.054.083.079.125.038.061.075.123.112.184a.366.366,0,0,1,.021.038c.034.058.069.116.1.175l.065.118q.151.277.29.564c.035.071.068.144.1.216.01.022.02.045.029.069.033.074.065.149.1.224l.013.029c.035.086.068.171.1.258l.009.021c.016.044.033.087.047.131.026.072.051.146.076.219s.048.147.072.221c.018.059.036.118.054.177.03.1.058.2.085.3.014.05.027.1.038.152s.032.128.046.193c.019.081.037.164.054.247s.036.179.051.268c.012.064.023.128.032.193.021.125.04.252.055.379.011.081.02.164.028.246s.015.152.02.229c0,.03,0,.06.007.091,0,.072.011.146.014.219a.235.235,0,0,1,0,.027c0,.055,0,.11.008.164s0,.1,0,.148v.6a1.506,1.506,0,0,1-.009.2v.018c0,.087-.011.175-.016.261v.016c-.006.091-.014.181-.024.271s-.017.161-.027.24-.021.168-.034.251c-.006.04-.012.079-.018.117-.009.056-.017.111-.028.166q-.026.158-.059.313c-.016.084-.036.167-.054.25s-.039.161-.059.24c-.01.038-.018.077-.03.116s-.025.1-.04.145c-.006.025-.013.049-.02.073q-.022.077-.046.155c-.012.04-.023.079-.036.12q-.071.23-.154.453c-.025.067-.049.134-.075.2-.015.042-.032.083-.048.123-.044.11-.09.218-.137.325-.016.039-.034.078-.052.117l-.02.045c-.028.061-.057.121-.086.18s-.068.138-.1.207c-.048.1-.1.193-.149.283q-.042.078-.087.153c-.065.117-.133.233-.2.345-.033.055-.067.108-.1.162s-.066.1-.1.152a1.553,1.553,0,0,1-.1.14q-.185.271-.386.53c-.043.056-.088.112-.133.167s-.067.083-.1.123-.087.1-.131.154-.107.123-.163.183-.11.122-.167.18-.084.088-.127.131q-.016.018-.034.034c-.031.033-.062.064-.1.1s-.058.058-.087.086l-.112.106q-.243.229-.5.443l-.148.12c-.048.04-.1.078-.147.116l-.052.042-.139.1c-.116.086-.234.171-.353.252l-.1.068-.144.1-.024.015-.163.1q-.386.236-.786.44c-.06.031-.121.061-.181.09s-.1.048-.15.071-.089.042-.134.062c-.166.074-.336.146-.507.211-.058.023-.115.044-.174.065l-.068.026c-.071.026-.144.052-.216.075l-.256.084-.016,0c-.079.025-.161.048-.241.071s-.138.04-.207.057l-.121.031c-.064.016-.129.032-.193.046h-.007l-.257.056h-.012c-.078.016-.158.032-.237.045-.047.01-.1.017-.142.025-.125.021-.251.041-.377.057-.055.008-.108.015-.163.019s-.129.015-.193.021c-.079.009-.156.015-.235.021h-.027c-.087.008-.176.013-.263.016l-.221.01h-.343Z" transform="translate(-432.9 -478.252)" fill="#fff"/>
      </g>
      <path id="Path_34" data-name="Path 34" d="M454.809,486.838v-.579a.31.31,0,0,0,0-.033c0-.043,0-.086-.009-.128a.017.017,0,0,0,0-.008.113.113,0,0,0,0-.016l-.007-.07a.994.994,0,0,0-.011-.119l-.006-.069a.189.189,0,0,0-.006-.057v-.04a.82.82,0,0,0-.013-.108v-.036l-.006-.049v-.034c-.01-.066-.017-.133-.028-.2,0-.033-.011-.066-.015-.1h0c-.013-.081-.026-.161-.042-.24a.215.215,0,0,0-.011-.054v-.015c0-.038-.013-.074-.02-.112,0,0,0-.006,0-.009s0-.015,0-.023-.007-.032-.01-.047l-.009-.041a.053.053,0,0,0,0-.027c-.006-.033-.014-.067-.021-.1v-.017l-.015-.072a.107.107,0,0,0-.009-.036c-.008-.031-.014-.061-.023-.091V484.3c0-.026-.012-.05-.017-.075s-.011-.042-.016-.062c-.01-.038-.02-.075-.03-.113s-.02-.075-.031-.114a.024.024,0,0,0,0-.017c-.019-.069-.04-.137-.061-.206a.1.1,0,0,0-.006-.02c-.011-.035-.02-.069-.033-.1a.327.327,0,0,0-.014-.042c-.011-.033-.021-.067-.032-.1-.017-.054-.036-.106-.055-.159-.01-.027-.018-.054-.029-.08a.174.174,0,0,0-.008-.021c-.009-.025-.017-.05-.027-.074s-.018-.05-.029-.075-.028-.074-.042-.11c-.008-.019-.015-.039-.023-.058s-.015-.038-.022-.056c-.015-.04-.031-.078-.047-.117l-.022-.051c0-.009-.007-.016-.011-.025s-.01-.023-.014-.033l-.053-.12v-.01c-.02-.044-.041-.09-.062-.134h0l-.069-.147q-.028-.061-.059-.121l-.043-.087c-.013-.025-.026-.051-.041-.077-.026-.052-.052-.1-.08-.153a1.017,1.017,0,0,0-.056-.1.3.3,0,0,0-.016-.03q-.064-.118-.132-.233l-.052-.089c-.03-.05-.061-.1-.1-.149-.012-.019-.023-.04-.037-.06s-.023-.038-.036-.055h0c-.04-.062-.079-.124-.121-.184l-.034-.05a10.967,10.967,0,0,0-9.071-4.815h-.343c-.073,0-.148,0-.221.009s-.177.01-.263.016h-.027l-.235.02-.193.022c-.055,0-.108.013-.163.019-.127.016-.253.035-.377.057-.047.008-.1.015-.142.025-.079.014-.159.029-.237.045H441.7q-.13.026-.258.056h-.006c-.065.015-.13.03-.193.046l-.121.031c-.07.017-.138.037-.208.057s-.162.046-.241.071l-.016,0c-.086.027-.171.055-.256.084s-.145.049-.216.075l-.069.025-.174.065c-.171.067-.341.137-.507.211l-.134.062-.15.071c-.053.025-.122.059-.181.09q-.4.2-.786.44l-.163.1-.023.015-.144.1-.1.069c-.12.081-.237.166-.353.252l-.139.1-.053.042c-.049.038-.1.076-.147.116s-.1.079-.148.12c-.172.143-.338.289-.5.443l-.112.106c-.029.028-.058.056-.087.086s-.062.06-.1.1q-.018.016-.034.034c-.043.043-.085.087-.127.131s-.113.12-.167.18-.11.122-.163.183-.089.1-.131.154-.068.082-.1.123c-.045.056-.09.111-.133.167q-.2.259-.386.53c-.032.046-.064.1-.1.141a1.145,1.145,0,0,0-.1.152c-.029.056-.068.107-.1.162q-.107.171-.2.346c-.03.05-.059.1-.087.153-.05.1-.1.188-.149.283-.036.07-.069.137-.1.207s-.058.12-.086.18l-.021.045c-.017.038-.035.077-.051.117-.047.107-.1.216-.137.325-.016.041-.033.082-.048.123-.026.067-.05.133-.075.2q-.082.223-.153.452c-.013.04-.025.079-.037.12s-.032.1-.046.154c-.008.024-.014.048-.02.073-.014.048-.027.1-.04.145s-.02.077-.03.116q-.031.12-.059.24c-.018.083-.038.166-.054.25q-.033.154-.059.313c-.011.055-.019.11-.028.166-.008.038-.013.077-.018.117-.013.083-.023.166-.034.251s-.018.16-.027.24-.017.181-.023.271v.016c-.006.086-.012.174-.016.261v.018c0,.067-.006.132-.009.2v.747a1.2,1.2,0,0,0,.008.164.235.235,0,0,0,0,.027c0,.073.008.147.014.219a.407.407,0,0,0,.007.091c.006.076.013.153.02.229s.017.165.028.246q.023.191.055.379c.01.065.02.129.032.193.015.09.033.18.052.268s.034.165.054.247c.014.065.03.129.046.193s.025.1.039.152c.027.1.055.2.085.3.017.059.035.118.054.177.024.074.047.148.072.221s.05.147.076.219c.015.044.031.088.047.131a.049.049,0,0,0,.009.021c.033.087.066.173.1.258l.013.029c.03.075.062.15.1.224l.029.069c.032.072.065.145.1.216q.133.289.289.564l.065.118c.032.059.066.117.1.175a.314.314,0,0,0,.021.037c.036.062.073.123.111.185.026.043.052.085.079.125.04.064.081.128.124.193l.014.02c.02.031.041.062.063.1.034.05.069.1.1.151l.023.032.089.122.088.118q.132.176.27.344c.034.042.069.085.1.125l.193.226c.039.043.078.088.118.13l.038.042c.039.042.077.083.117.123q.272.284.564.545l.163.146.01.008q.059.052.12.1c.038.032.075.065.115.1.113.1.227.182.344.27.038.029.075.057.114.084s.1.075.154.113.1.073.155.108l.069.046.156.1q.22.143.446.273c.048.029.1.057.147.084l.179.1q.051.029.1.055c.036.017.1.052.151.077s.132.067.2.1q.2.1.4.182l.154.065.07.029.187.072c.063.025.128.048.193.071l.015,0h0c.1.036.2.07.3.1.046.016.1.031.141.046l.033.009.078.024.1.03.167.046a.693.693,0,0,0,.07.018c.028.009.056.015.084.021l.083.021h.007l.08.02.113.025c.056.014.113.026.168.036l.025.006a.272.272,0,0,0,.042.009c.062.014.124.025.187.036h.017c.041.009.083.015.125.021l.14.024.059.009.054.009.163.023h.016c.064.009.127.016.193.023l.062.007.118.012c.057.006.115.012.173.015.034,0,.069.007.1.009.05,0,.1.008.153.009a.572.572,0,0,1,.1.006c.036.006.089,0,.133,0h.642c.052,0,.106,0,.159,0s.125,0,.188-.008c.08,0,.162-.01.241-.015h.018c.1-.007.181-.015.272-.025s.163-.017.243-.028l.149-.019.039,0,.1-.013.084-.014.035,0,.177-.03c.09-.015.179-.033.268-.052s.179-.038.266-.058l.24-.058.038-.011h.014c.078-.02.155-.042.234-.064l.211-.063c.05-.015.1-.031.152-.048l.017-.006.032-.011.088-.029.051-.017c.065-.022.127-.043.193-.068l.083-.031.216-.083.019-.009c.057-.022.114-.045.169-.069l.052-.022c.08-.034.159-.069.238-.1q.472-.215.92-.472c.074-.042.149-.086.222-.13.148-.089.289-.181.433-.277l.1-.07c.034-.024.069-.046.1-.07s.072-.05.107-.076l.112-.08.146-.111.02-.016.108-.085c.043-.033.086-.068.128-.1s.107-.089.16-.134c.08-.067.16-.136.237-.206l.011-.009.112-.1c.037-.035.058-.052.086-.079h0c.041-.04.083-.078.123-.119l.043-.042h0c.044-.043.088-.087.13-.131h0c.016-.015.032-.032.047-.048h0l.118-.124.041-.042h0l0-.006.079-.087.085-.1h0l.008-.009.12-.137.023-.027.026-.031c.026-.031.052-.062.077-.1s.052-.062.076-.1c.054-.068.106-.134.158-.2s.1-.136.154-.206.088-.121.131-.182l.039-.054a.233.233,0,0,0,.023-.036l.081-.119.015-.022.014-.022c.042-.062.081-.125.121-.188l.017-.028v-.008c.042-.067.083-.132.122-.2s.087-.148.129-.223.083-.15.124-.226l.073-.139c.024-.046.047-.1.07-.14q.071-.141.136-.284c.022-.047.044-.1.065-.144s.042-.1.063-.146l.03-.069a.139.139,0,0,1,.009-.02c.015-.038.031-.074.045-.113,0-.008.006-.014.009-.02.018-.045.036-.1.054-.137q.042-.107.08-.213t.071-.2c.027-.079.052-.157.077-.236l.01-.03c.025-.081.049-.161.072-.242.016-.059.032-.117.047-.176.011-.036.02-.07.028-.105.014-.054.027-.107.04-.161l.029-.124a.21.21,0,0,1,.007-.032c.015-.064.029-.129.043-.193a.021.021,0,0,0,0-.008l.006-.032c.015-.069.028-.138.04-.208a.182.182,0,0,0,0-.021.061.061,0,0,1,0-.029c.013-.065.023-.131.033-.193l.006-.04c.006-.03.01-.06.014-.09v-.022c.011-.071.019-.142.029-.212s.017-.147.025-.22a.252.252,0,0,0,0-.028c.008-.068.014-.134.018-.2v-.042a.337.337,0,0,1,0-.069h0c.006-.075.011-.151.014-.227s.006-.132.009-.2v-.36A.154.154,0,0,1,454.809,486.838Zm-7.1.073a3.849,3.849,0,0,1-3.849,3.849,3.775,3.775,0,0,1-.653-.056l-.074-.014-.09-.017-.083-.018c-.083-.02-.164-.043-.245-.069l-.09-.029a3.867,3.867,0,0,1-.815-.386l-.057-.037c-.042-.027-.081-.054-.121-.083s-.048-.034-.072-.053a3.719,3.719,0,0,1-.377-.321l-.044-.044a3.843,3.843,0,0,1-.483-.591c-.012-.015-.021-.032-.032-.048l-.015-.023-.038-.062-.031-.052a3.842,3.842,0,0,1-.371-.856c-.015-.051-.029-.1-.042-.158-.007-.029-.015-.058-.02-.087s-.014-.064-.021-.1-.01-.052-.014-.079c-.015-.083-.026-.166-.035-.251v-.018a3.914,3.914,0,0,1-.02-.4,3.849,3.849,0,0,1,3.75-3.848h3.948Z" transform="translate(-432.901 -475.956)" fill="#fff"/>
      <g id="Group_20" data-name="Group 20" transform="translate(0.018 0.001)">
        <path id="Path_35" data-name="Path 35" d="M454.807,475.956a7.1,7.1,0,0,1-7.106,7.107h-3.948a7.487,7.487,0,0,0-3.138.7c-.1.043-.193.091-.289.14a7.55,7.55,0,0,0-4.075,6.705v.148a7.376,7.376,0,0,0,.081.971,7.483,7.483,0,0,0,.547,1.9q.073.165.155.328c.021.044.042.088.067.13.054.106.111.21.171.314a7.586,7.586,0,0,0,2.9,2.824l-.015,0c-.064-.023-.129-.046-.193-.071l-.187-.072-.07-.029-.154-.065q-.2-.087-.4-.182c-.068-.031-.133-.063-.2-.1l-.151-.077c-.054-.027-.07-.036-.1-.055l-.18-.1-.147-.084q-.226-.131-.446-.273c-.052-.033-.1-.067-.156-.1l-.069-.046c-.052-.035-.1-.071-.155-.108s-.1-.074-.154-.113-.076-.055-.114-.084c-.117-.088-.232-.179-.344-.27-.04-.031-.077-.063-.115-.1s-.08-.067-.12-.1l-.01-.008c-.055-.047-.11-.1-.163-.146q-.289-.262-.564-.545c-.04-.04-.078-.083-.117-.123a.518.518,0,0,1-.038-.042c-.04-.042-.079-.087-.118-.13-.067-.074-.132-.15-.193-.226l-.1-.125q-.139-.169-.27-.344l-.088-.118-.089-.122-.023-.032c-.036-.05-.07-.1-.1-.151-.021-.031-.042-.062-.063-.1a.187.187,0,0,1-.014-.02c-.042-.064-.084-.128-.125-.193-.028-.042-.054-.084-.079-.125-.038-.061-.075-.123-.111-.185a.308.308,0,0,1-.021-.037c-.034-.058-.069-.116-.1-.175l-.065-.118q-.152-.277-.289-.564c-.035-.071-.069-.144-.1-.216l-.029-.069c-.033-.074-.065-.149-.1-.224l-.013-.029c-.035-.086-.069-.171-.1-.258a.05.05,0,0,0-.009-.021c-.016-.043-.033-.087-.047-.131-.026-.072-.052-.146-.076-.219l-.072-.221c-.018-.059-.036-.118-.054-.177-.03-.1-.058-.2-.085-.3-.014-.05-.027-.1-.039-.152s-.032-.128-.046-.193c-.019-.082-.038-.164-.054-.247s-.036-.179-.052-.268c-.012-.064-.022-.128-.032-.193-.02-.125-.04-.252-.055-.379-.011-.081-.019-.164-.028-.246s-.014-.151-.02-.229c0-.03,0-.06-.007-.091,0-.072-.011-.146-.013-.219a.222.222,0,0,1,0-.027c0-.055-.006-.109-.008-.164s0-.1,0-.148v-.6a1.5,1.5,0,0,1,.009-.2v-.018c0-.087.011-.175.016-.26v-.016c.006-.091.015-.181.023-.271s.017-.161.027-.24.022-.168.034-.251c.006-.04.012-.078.018-.117.009-.056.017-.112.028-.166q.026-.158.059-.313c.016-.084.035-.167.054-.25s.038-.161.059-.24c.01-.039.018-.077.03-.116s.025-.1.04-.145c.006-.025.014-.049.02-.073.014-.051.03-.1.046-.154s.023-.079.037-.12q.071-.229.153-.452c.025-.068.049-.134.075-.2.015-.042.032-.083.048-.123.044-.109.09-.218.137-.325.016-.04.034-.078.051-.117l.021-.045c.028-.061.057-.121.086-.18s.067-.138.1-.208c.048-.1.1-.193.149-.283q.042-.078.087-.154.1-.176.2-.346c.033-.055.067-.108.1-.162s.066-.1.1-.152.063-.1.1-.141q.186-.271.386-.53c.043-.056.088-.112.133-.167s.067-.083.1-.123.087-.1.131-.154.107-.123.163-.183.111-.122.167-.18.084-.088.127-.131q.016-.018.034-.034c.031-.033.062-.064.1-.1s.058-.058.087-.086l.112-.106c.162-.152.328-.3.5-.443.048-.041.1-.081.148-.12s.1-.078.147-.116l.053-.042.139-.1c.116-.086.234-.171.353-.252l.1-.068.144-.1.023-.015.163-.1q.386-.237.786-.44c.06-.031.121-.061.181-.09s.1-.048.15-.071.089-.042.134-.062c.166-.074.336-.146.507-.211.058-.022.115-.044.174-.065l.069-.025c.071-.026.144-.052.216-.075l.256-.084.016,0c.079-.025.161-.048.241-.071s.138-.04.207-.057l.121-.031c.064-.016.129-.032.193-.046h.006q.127-.03.258-.056h.012c.078-.016.158-.032.237-.045l.142-.025c.125-.021.251-.041.377-.057.055-.008.108-.015.163-.019l.193-.022c.078-.008.156-.014.235-.02h.027c.087-.007.176-.013.263-.016s.148-.008.221-.009h.343Z" transform="translate(-432.917 -475.956)" fill="#fff"/>
      </g>
      <g id="Group_21" data-name="Group 21" transform="translate(3.354 4.805)">
        <path id="Path_36" data-name="Path 36" d="M463.528,499.415v.36c0,.068,0,.133-.009.2s-.009.151-.014.227h0a.337.337,0,0,1,0,.069v.042c0,.068-.012.134-.018.2a.238.238,0,0,1,0,.028c-.007.073-.016.148-.025.22s-.018.142-.029.212V501a.576.576,0,0,1-.013.09l-.006.04c-.011.067-.02.132-.033.193a.061.061,0,0,1,0,.029.208.208,0,0,1,0,.022c-.013.07-.025.14-.041.208l-.006.032a.019.019,0,0,1,0,.008c-.013.065-.027.13-.042.193a.315.315,0,0,1-.007.032c-.01.042-.018.083-.029.124s-.026.108-.039.161c-.009.035-.017.07-.028.105-.015.059-.031.117-.047.176-.023.081-.047.162-.072.242l-.01.03c-.025.079-.05.158-.077.236s-.046.136-.071.2-.052.143-.08.213c-.017.045-.036.1-.054.137a.188.188,0,0,1-.009.02c-.014.038-.03.075-.045.113a.146.146,0,0,0-.009.02l-.03.069c-.02.048-.041.1-.063.146s-.042.1-.065.144q-.066.143-.136.284c-.022.047-.046.1-.07.141l-.073.139q-.061.115-.124.227c-.042.075-.086.15-.129.223s-.08.133-.122.2v.007l-.017.028c-.04.063-.079.125-.121.188l-.015.022-.014.021-.08.119c-.008.013-.015.023-.024.036l-.039.054c-.043.062-.087.123-.131.182s-.1.138-.154.206-.1.135-.158.2l-.076.1c-.026.034-.051.062-.077.1l-.026.031-.023.027-.12.137-.008.009h0l-.085.1-.079.087-.006.006h0l-.041.042-.118.124h0c-.015.016-.031.033-.047.048h0c-.042.044-.086.088-.13.131h0l-.042.041c-.041.041-.082.079-.123.119h0c-.028.027-.057.054-.086.079s-.074.069-.112.1l-.011.01c-.077.07-.157.14-.237.206-.052.045-.106.09-.16.134s-.085.069-.128.1l-.108.085-.02.016-.146.111-.111.08c-.035.026-.071.052-.107.076s-.067.047-.1.07l-.1.07c-.142.1-.29.188-.433.277q-.11.067-.222.13-.448.258-.92.472c-.079.036-.158.07-.238.1l-.052.021c-.056.024-.113.047-.169.069l-.019.009-.216.083-.083.031c-.063.024-.125.045-.193.068l-.051.017-.088.029-.032.011-.017,0c-.05.017-.1.033-.152.048l-.211.063c-.077.022-.154.043-.234.064h-.013l-.038.011-.24.058c-.088.02-.177.04-.266.058s-.179.036-.268.052l-.177.03-.035,0-.084.014-.1.013-.039,0-.149.02c-.08.011-.162.019-.243.028s-.181.017-.272.025h-.066c-.079.006-.161.012-.241.015-.063,0-.125.006-.188.007s-.106,0-.159,0h-.643a1.222,1.222,0,0,1-.133,0c-.044,0-.062,0-.1,0-.052,0-.1,0-.153-.01a.414.414,0,0,1-.1-.009,1.72,1.72,0,0,1-.173-.015.974.974,0,0,1-.118-.012l-.062-.007c-.065-.006-.129-.014-.193-.023h-.016l-.163-.023-.054-.009-.059-.009-.14-.024c-.043-.006-.085-.014-.125-.021h-.017c-.063-.012-.124-.022-.187-.036a.245.245,0,0,1-.042-.01l-.025,0c-.056-.011-.112-.022-.168-.036l-.113-.025-.08-.02h-.007l-.083-.021-.084-.021a.709.709,0,0,1-.069-.018c-.056-.014-.111-.03-.167-.046l-.1-.03c-.085-.025-.168-.052-.252-.079s-.2-.067-.3-.1h0a7.586,7.586,0,0,1-2.888-2.82c-.06-.1-.118-.208-.171-.314q-.035-.064-.067-.13-.082-.162-.154-.328a7.48,7.48,0,0,1-.547-1.9,7.346,7.346,0,0,1-.08-.971v-.148a7.551,7.551,0,0,1,4.075-6.705c.1-.048.193-.1.289-.14a7.49,7.49,0,0,1,3.138-.7,3.848,3.848,0,0,0-3.749,3.848,3.9,3.9,0,0,0,.02.4v.018c.01.085.02.168.035.251,0,.027.01.054.015.079s.013.066.021.1.013.058.02.087c.013.054.027.106.042.158a3.841,3.841,0,0,0,.371.856l.031.052.038.062.015.023h0c.011.015.02.032.032.047a3.849,3.849,0,0,0,.483.592l.044.043a3.726,3.726,0,0,0,.377.321c.023.018.048.036.072.053.04.029.079.056.121.082l.057.037a3.87,3.87,0,0,0,.816.386l.09.029c.081.025.162.047.245.068l.083.018.09.017.074.013a3.777,3.777,0,0,0,.653.056,3.849,3.849,0,0,0,3.849-3.849v-3.849a7.089,7.089,0,0,0,4.645-1.728,6.946,6.946,0,0,0,.579-.563l.034.05c.042.061.082.123.121.184h0c.013.017.024.036.036.055s.026.04.037.06c.031.048.062.1.1.149l.052.089c.044.076.089.153.132.233a.293.293,0,0,1,.016.03q.069.125.136.254c.015.026.027.052.041.077l.043.087q.031.061.059.121c.024.048.046.1.069.147h0c.012.023.022.044.031.067l.034.076.053.12.014.033a.236.236,0,0,1,.011.025l.021.051.036.086a.1.1,0,0,0,.012.031c0,.011.015.038.022.056s.016.038.023.058c.015.036.029.073.042.11s.02.049.029.075.018.048.027.074a.162.162,0,0,1,.008.021c.011.026.019.054.029.08l.055.159q.016.048.032.1a.283.283,0,0,1,.014.043c.012.035.023.069.033.1a.1.1,0,0,1,.006.02c.02.068.042.136.061.206a.022.022,0,0,0,0,.017c.011.039.021.075.031.114s.02.075.03.113.024.091.034.137v.017c.008.027.013.055.021.081v.01a.252.252,0,0,0,.009.036l.015.072v.017a.483.483,0,0,1,.013.054l.01.044a.053.053,0,0,0,0,.027l.01.041a.3.3,0,0,0,.01.047.057.057,0,0,1,0,.023.052.052,0,0,0,0,.009.2.2,0,0,0,.012.052v.008c0,.008.006.034.008.052v.015a.4.4,0,0,0,.011.054c.015.079.029.16.042.24l.015.1c.011.066.018.133.028.2v.034l.006.049v.036l.013.108v.036a.189.189,0,0,0,.006.057c.006.018,0,.046.006.069,0,.04.008.079.011.119l.007.07v.016a.016.016,0,0,1,0,.007c0,.042.006.085.009.128a.31.31,0,0,1,0,.033c0,.011,0,.021,0,.032a.452.452,0,0,0,0,.081.472.472,0,0,1,0,.082v.384C463.528,499.367,463.528,499.391,463.528,499.415Z" transform="translate(-444.966 -493.266)" fill="#fff"/>
        <path id="Path_37" data-name="Path 37" d="M460.129,552.843c.118.04.235.075.355.109C460.364,552.919,460.247,552.884,460.129,552.843Z" transform="translate(-455.911 -536.274)" fill="#fff" opacity="0.1"/>
      </g>
      <g id="Group_23" data-name="Group 23" transform="translate(7.129 4.819)">
        <g id="Group_22" data-name="Group 22" transform="translate(0 0)">
          <path id="Path_38" data-name="Path 38" d="M473.322,499.343a7.4,7.4,0,0,1-11.9,5.807,7.45,7.45,0,0,1-1.659-1.773l-.069-.1a7.432,7.432,0,0,1-.56-1.048,7.312,7.312,0,0,1-.589-2.385c.01.085.02.168.035.251,0,.027.01.054.014.079s.014.066.021.1.014.058.02.087c.014.054.027.106.042.158a3.848,3.848,0,0,0,.371.856l.031.052.038.062.015.023h0c.011.015.02.032.032.047a3.843,3.843,0,0,0,.483.592l.044.043a3.727,3.727,0,0,0,.377.321c.023.018.048.036.072.053.04.029.079.056.121.082l.057.037a3.865,3.865,0,0,0,.815.386l.09.029c.08.025.162.047.245.069l.083.018.09.017.074.014a3.778,3.778,0,0,0,.653.056,3.849,3.849,0,0,0,3.849-3.849v-3.849a7.089,7.089,0,0,0,4.645-1.728,6.965,6.965,0,0,0,.579-.563l.034.05c.042.061.082.123.121.184h0c.013.017.024.036.036.055s.025.04.037.06c.031.048.062.1.1.149l.052.089c.044.076.089.153.132.233a.309.309,0,0,1,.016.03c.019.033.038.067.056.1.028.05.054.1.08.153.014.026.027.052.041.077l.043.087c.02.041.041.081.059.121s.046.1.069.147h0c.012.023.021.044.031.067l.031.068.056.129c0,.011.009.022.015.033l.011.025.021.051.036.086.034.087c.009.019.016.038.023.058.014.036.029.073.042.11s.019.049.029.075.018.048.027.074a.176.176,0,0,1,.008.021c.011.026.019.054.029.08.018.053.037.105.055.159l.032.1a.3.3,0,0,1,.013.042c.012.035.023.069.033.1a.091.091,0,0,1,.006.02c.02.069.041.136.061.206a.022.022,0,0,0,0,.017c.011.039.022.075.031.114s.02.075.03.113c.006.02.012.042.016.062.014.058.029.116.042.175v.01a.255.255,0,0,0,.009.036c.012.047.022.1.032.145l.009.044c0,.023.011.044.015.068s.007.031.01.047l.006.031a.2.2,0,0,0,.012.052v.008c.007.041.015.081.021.121.015.079.029.16.042.24l.015.1c.011.066.018.133.028.2v.034l.006.049v.036l.013.108v.036a.187.187,0,0,0,.006.057c.006.018,0,.046.006.069,0,.04.008.079.011.119a.251.251,0,0,0,.007.07v.016a.016.016,0,0,1,0,.007c0,.042.006.085.009.128a.28.28,0,0,1,0,.033.5.5,0,0,0,0,.085.286.286,0,0,1,0,.029v.328A.267.267,0,0,1,473.322,499.343Z" transform="translate(-458.542 -493.281)" fill="#fff"/>
        </g>
      </g>
      <g id="Group_24" data-name="Group 24" transform="translate(0 0)">
        <path id="Path_39" data-name="Path 39" d="M454.807,486.91a10.954,10.954,0,1,1-21.908,0c0-.159,0-.316.012-.473a10.032,10.032,0,1,0,10.471-10.472c.156-.008.314-.011.473-.011a10.955,10.955,0,0,1,10.952,10.955Z" transform="translate(-432.899 -475.955)" fill="#fff" opacity="0.1"/>
      </g>
      <g id="Group_26" data-name="Group 26" transform="translate(0 0.001)" opacity="0.5">
        <g id="Group_25" data-name="Group 25">
          <path id="Path_40" data-name="Path 40" d="M454.806,475.956a7.386,7.386,0,0,1-6.23,3.4h-4.912a10.165,10.165,0,0,0-10.175,10.175,10.015,10.015,0,0,0,.059,1.091,10.963,10.963,0,0,1,7.045-14.179l.016,0a11.009,11.009,0,0,1,3.241-.487Z" transform="translate(-432.899 -475.956)" fill="#fff"/>
        </g>
      </g>
      <g id="Group_27" data-name="Group 27" transform="translate(3.354 7.1)" opacity="0.25">
        <path id="Path_41" data-name="Path 41" d="M463.528,505.368v.36c0,.068,0,.133-.009.2s-.009.151-.014.227h0a.339.339,0,0,1,0,.069v.043c0,.068-.012.134-.018.2a.215.215,0,0,1,0,.028c-.007.073-.016.148-.025.22s-.018.142-.029.212v.022a.58.58,0,0,1-.013.09l-.006.04c-.011.067-.02.132-.033.193a.061.061,0,0,1,0,.029.17.17,0,0,1,0,.021c-.013.07-.025.14-.041.208l-.006.032a.018.018,0,0,1,0,.008c-.013.065-.027.13-.042.193a.052.052,0,0,1-.007.032c-.01.042-.018.083-.029.124s-.026.107-.04.161c-.009.035-.017.07-.028.105-.015.059-.031.117-.047.176-.023.081-.047.162-.072.242l-.01.03c-.025.079-.05.158-.077.236s-.046.136-.071.2-.052.142-.08.213c-.017.045-.036.1-.054.137a.046.046,0,0,1-.009.02c-.014.038-.03.075-.045.113a.14.14,0,0,0-.009.02l-.03.068c-.02.048-.041.1-.063.146s-.042.1-.065.144q-.066.143-.136.284c-.022.047-.046.1-.07.14l-.073.139q-.061.115-.124.227c-.042.075-.086.15-.129.223s-.08.133-.122.2v.007l-.017.028c-.04.063-.079.125-.121.188l-.014.022-.014.021-.08.119c-.008.013-.015.023-.024.036l-.039.054c-.043.062-.087.123-.131.182s-.1.138-.154.206-.1.135-.158.2l-.076.1c-.026.034-.051.062-.077.1l-.026.031-.023.027-.12.137-.008.009h0l-.085.1-.079.087-.006.006h0l-.041.042-.118.125h0c-.015.016-.031.033-.047.048h0c-.042.044-.086.088-.13.131h0l-.042.042c-.041.041-.082.079-.123.119h0c-.028.027-.057.054-.086.079s-.074.069-.112.1l-.011.009c-.077.07-.157.14-.237.206-.052.045-.106.09-.16.134s-.085.069-.128.1l-.108.085-.02.016-.146.111-.111.08c-.035.026-.071.052-.107.076s-.067.047-.1.07-.068.046-.1.07c-.142.1-.29.188-.433.277q-.11.067-.222.13-.448.258-.92.472c-.079.036-.158.07-.238.1l-.052.022c-.056.024-.113.047-.169.069l-.019.009-.216.083-.083.031c-.063.024-.125.045-.193.068l-.051.017-.088.029-.032.011-.017,0c-.05.017-.1.033-.152.048l-.211.063c-.077.022-.154.043-.234.064h-.013l-.038.011-.24.058c-.088.02-.177.04-.266.058l-.268.052-.177.03-.035,0-.084.013-.1.014-.039,0-.149.02c-.08.011-.162.019-.243.028s-.181.017-.272.025h-.065c-.079.006-.161.012-.241.015-.063,0-.125.006-.188.008s-.106,0-.159,0h-.643a1.034,1.034,0,0,1-.133-.006c-.044-.006-.062,0-.1,0-.052,0-.1,0-.153-.009a.416.416,0,0,1-.1-.009,1.481,1.481,0,0,1-.173-.015.987.987,0,0,1-.118-.012l-.062-.008c-.065-.006-.129-.015-.193-.023h-.016l-.163-.023-.054-.009-.059-.01-.14-.024c-.043-.006-.085-.014-.125-.021h-.017c-.063-.012-.124-.022-.187-.036a.265.265,0,0,1-.042-.009l-.025,0c-.056-.011-.112-.022-.168-.037l-.113-.025-.08-.019h-.007l-.083-.021c-.028-.008-.056-.014-.084-.022a.676.676,0,0,1-.069-.018c-.056-.015-.111-.03-.167-.046l-.1-.03-.059-.017-.025-.008-.168-.054c-.1-.032-.2-.067-.3-.1h0a7.585,7.585,0,0,1-2.888-2.82c-.06-.1-.118-.208-.171-.314q-.035-.064-.067-.13-.082-.163-.154-.328a7.48,7.48,0,0,1-.547-1.9,7.345,7.345,0,0,1-.08-.971v-.148a7.55,7.55,0,0,1,4.075-6.705c.1-.048.193-.1.29-.14a7.49,7.49,0,0,1,3.138-.7,3.849,3.849,0,0,0-3.749,3.848,3.891,3.891,0,0,0,.02.4c0,.005,0,.012,0,.018a7.312,7.312,0,0,0,.589,2.385,7.429,7.429,0,0,0,.56,1.048l.069.1a7.4,7.4,0,0,0,13.563-4.026A.315.315,0,0,1,463.528,505.368Z" transform="translate(-444.966 -501.513)" fill="#fff"/>
        <path id="Path_42" data-name="Path 42" d="M460.129,552.843c.118.04.235.075.355.109C460.364,552.919,460.247,552.884,460.129,552.843Z" transform="translate(-455.911 -538.568)" fill="#fff" opacity="0.1"/>
      </g>
      <g id="Group_29" data-name="Group 29" transform="translate(0.018 0.001)">
        <g id="Group_28" data-name="Group 28">
          <path id="Path_43" data-name="Path 43" d="M454.807,475.956a7.1,7.1,0,0,1-7.106,7.107h-3.948a7.487,7.487,0,0,0-3.138.7c-.1.043-.193.091-.289.14a7.55,7.55,0,0,0-4.075,6.705v.148a7.376,7.376,0,0,0,.081.971,7.483,7.483,0,0,0,.547,1.9q.073.165.155.328c.021.044.042.088.067.13.054.106.111.21.171.314a7.586,7.586,0,0,0,2.9,2.824l-.015,0c-.064-.023-.129-.046-.193-.071l-.187-.072-.07-.029-.154-.065q-.2-.087-.4-.182c-.068-.031-.133-.063-.2-.1l-.151-.077c-.054-.027-.07-.036-.1-.055l-.18-.1-.147-.084q-.226-.131-.446-.273c-.052-.033-.1-.067-.156-.1l-.069-.046c-.052-.035-.1-.071-.155-.108s-.1-.074-.154-.113-.076-.055-.114-.084c-.117-.088-.232-.179-.344-.27-.04-.031-.077-.063-.115-.1s-.08-.067-.12-.1l-.01-.008c-.055-.047-.11-.1-.163-.146q-.289-.262-.564-.545c-.04-.04-.078-.083-.117-.123a.518.518,0,0,1-.038-.042c-.04-.042-.079-.087-.118-.13-.067-.074-.132-.15-.193-.226l-.1-.125q-.139-.169-.27-.344l-.088-.118-.089-.122-.023-.032c-.036-.05-.07-.1-.1-.151-.021-.031-.042-.062-.063-.1a.187.187,0,0,1-.014-.02c-.042-.064-.084-.128-.125-.193-.028-.042-.054-.084-.079-.125-.038-.061-.075-.123-.111-.185a.308.308,0,0,1-.021-.037c-.034-.058-.069-.116-.1-.175l-.065-.118q-.152-.277-.289-.564c-.035-.071-.069-.144-.1-.216l-.029-.069c-.033-.074-.065-.149-.1-.224l-.013-.029c-.035-.086-.069-.171-.1-.258a.05.05,0,0,0-.009-.021c-.016-.043-.033-.087-.047-.131-.026-.072-.052-.146-.076-.219l-.072-.221c-.018-.059-.036-.118-.054-.177-.03-.1-.058-.2-.085-.3-.014-.05-.027-.1-.039-.152s-.032-.128-.046-.193c-.019-.082-.038-.164-.054-.247s-.036-.179-.052-.268c-.012-.064-.022-.128-.032-.193-.02-.125-.04-.252-.055-.379-.011-.081-.019-.164-.028-.246s-.014-.151-.02-.229c0-.03,0-.06-.007-.091,0-.072-.011-.146-.013-.219a.222.222,0,0,1,0-.027c0-.055-.006-.109-.008-.164s0-.1,0-.148v-.6a1.5,1.5,0,0,1,.009-.2v-.018c0-.087.011-.175.016-.26v-.016c.006-.091.015-.181.023-.271s.017-.161.027-.24.022-.168.034-.251c.006-.04.012-.078.018-.117.009-.056.017-.112.028-.166q.026-.158.059-.313c.016-.084.035-.167.054-.25s.038-.161.059-.24c.01-.039.018-.077.03-.116s.025-.1.04-.145c.006-.025.014-.049.02-.073.014-.051.03-.1.046-.154s.023-.079.037-.12q.071-.229.153-.452c.025-.068.049-.134.075-.2.015-.042.032-.083.048-.123.044-.109.09-.218.137-.325.016-.04.034-.078.051-.117l.021-.045c.028-.061.057-.121.086-.18s.067-.138.1-.208c.048-.1.1-.193.149-.283q.042-.078.087-.154.1-.176.2-.346c.033-.055.067-.108.1-.162s.066-.1.1-.152.063-.1.1-.141q.186-.271.386-.53c.043-.056.088-.112.133-.167s.067-.083.1-.123.087-.1.131-.154.107-.123.163-.183.111-.122.167-.18.084-.088.127-.131q.016-.018.034-.034c.031-.033.062-.064.1-.1s.058-.058.087-.086l.112-.106c.162-.152.328-.3.5-.443.048-.041.1-.081.148-.12s.1-.078.147-.116l.053-.042.139-.1c.116-.086.234-.171.353-.252l.1-.068.144-.1.023-.015.163-.1q.386-.237.786-.44c.06-.031.121-.061.181-.09s.1-.048.15-.071.089-.042.134-.062c.166-.074.336-.146.507-.211.058-.022.115-.044.174-.065l.069-.025c.071-.026.144-.052.216-.075l.256-.084.016,0c.079-.025.161-.048.241-.071s.138-.04.207-.057l.121-.031c.064-.016.129-.032.193-.046h.006q.127-.03.258-.056h.012c.078-.016.158-.032.237-.045l.142-.025c.125-.021.251-.041.377-.057.055-.008.108-.015.163-.019l.193-.022c.078-.008.156-.014.235-.02h.027c.087-.007.176-.013.263-.016s.148-.008.221-.009h.343Z" transform="translate(-432.917 -475.956)" fill="#fff"/>
        </g>
      </g>
      <g id="Group_31" data-name="Group 31" transform="translate(0 0.001)" opacity="0.5">
        <g id="Group_30" data-name="Group 30">
          <path id="Path_44" data-name="Path 44" d="M454.806,475.956a7.386,7.386,0,0,1-6.23,3.4h-4.912a10.165,10.165,0,0,0-10.175,10.175,10.015,10.015,0,0,0,.059,1.091,10.963,10.963,0,0,1,7.045-14.179l.016,0a11.009,11.009,0,0,1,3.241-.487Z" transform="translate(-432.899 -475.956)" fill="#fff"/>
        </g>
      </g>
      <g id="Group_32" data-name="Group 32" transform="translate(0.003 7.238)" opacity="0.25">
        <path id="Path_45" data-name="Path 45" d="M432.905,516.661a7.385,7.385,0,0,1,6.23-3.4h4.912a10.165,10.165,0,0,0,10.175-10.175,10.04,10.04,0,0,0-.059-1.092,10.963,10.963,0,0,1-7.045,14.179l-.016,0a11,11,0,0,1-3.241.483Z" transform="translate(-432.905 -501.989)" fill="#fff"/>
      </g>
      <g id="Group_35" data-name="Group 35" transform="translate(0.015 0.001)" opacity="0.5">
        <g id="Group_34" data-name="Group 34">
          <g id="Group_33" data-name="Group 33">
            <path id="Path_46" data-name="Path 46" d="M450.2,475.956a8.2,8.2,0,0,1-1.484,4.816,6.5,6.5,0,0,1-.458.563,5.647,5.647,0,0,1-1.183.995,4.645,4.645,0,0,1-2.483.734h-.981a1.951,1.951,0,0,0-.225.009h-.059a9.658,9.658,0,0,0-9.105,9.041q-.146-.266-.273-.542c-.035-.071-.069-.144-.1-.216l-.029-.069c-.033-.074-.065-.149-.1-.224l-.013-.029c-.035-.086-.068-.171-.1-.258a.049.049,0,0,0-.009-.021c-.016-.043-.033-.087-.047-.131-.026-.072-.052-.146-.076-.219l-.072-.221c-.018-.059-.036-.118-.054-.177-.03-.1-.058-.2-.085-.3-.014-.05-.027-.1-.039-.152s-.032-.128-.046-.193c-.019-.082-.038-.164-.054-.247s-.036-.179-.052-.268c-.012-.064-.022-.128-.032-.193-.02-.124-.04-.252-.055-.379-.011-.081-.019-.164-.028-.246s-.014-.152-.02-.229c0-.03,0-.06-.007-.091,0-.072-.011-.146-.014-.219a.236.236,0,0,1,0-.027c0-.055-.006-.109-.008-.164s0-.1,0-.148v-.6a1.5,1.5,0,0,1,.009-.2v-.018c0-.087.011-.175.016-.26v-.016c.006-.091.015-.181.023-.271s.017-.161.027-.24.022-.168.034-.251c.006-.04.012-.078.018-.117.009-.056.017-.112.028-.166q.026-.158.059-.313c.016-.084.035-.167.054-.25s.038-.161.059-.24c.01-.039.018-.077.03-.116s.025-.1.04-.145c.006-.025.014-.049.02-.073.014-.051.03-.1.046-.154s.023-.079.037-.12q.071-.229.153-.452c.025-.068.049-.134.075-.2.015-.042.032-.083.048-.123.044-.109.09-.218.137-.325.016-.04.034-.078.051-.117l.021-.045c.028-.061.057-.121.086-.18s.067-.138.1-.208c.048-.1.1-.193.149-.283q.042-.078.087-.153.1-.176.2-.346c.033-.055.067-.108.1-.162s.066-.1.1-.152.063-.1.1-.141q.186-.271.386-.53c.043-.056.088-.112.133-.167s.067-.083.1-.123.087-.1.131-.154.107-.123.163-.183.111-.122.167-.181.084-.088.127-.131c.011-.012.022-.023.034-.034.031-.033.062-.064.1-.1s.058-.058.087-.086l.112-.106c.162-.152.328-.3.5-.443.048-.041.1-.081.148-.12s.1-.078.147-.116l.053-.042.139-.1c.116-.086.234-.171.353-.252l.1-.069.144-.1.023-.016.163-.1q.386-.237.786-.44c.06-.031.121-.061.181-.09s.1-.048.15-.071.089-.042.134-.062c.166-.074.336-.146.507-.211.058-.022.115-.044.174-.065l.069-.025c.071-.026.144-.052.216-.075l.256-.084.016,0c.079-.025.161-.048.241-.071s.138-.04.207-.057l.121-.031c.064-.016.129-.032.193-.046h.006q.127-.03.258-.056h.012c.078-.016.158-.032.237-.045l.142-.025c.124-.021.251-.041.377-.057.055-.008.108-.014.163-.019l.193-.022c.078-.008.156-.014.235-.02h.027c.087-.007.176-.013.263-.016s.148-.008.221-.009h.343Z" transform="translate(-432.914 -475.956)" fill="#fff"/>
          </g>
        </g>
      </g>
      <path id="Path_47" data-name="Path 47" d="M478.783,502.344a6.129,6.129,0,0,1-5.964,6.127h-.03a3.849,3.849,0,0,0,3.713-3.847v-3.849a7.074,7.074,0,0,0,2-.289A6.137,6.137,0,0,1,478.783,502.344Z" transform="translate(-461.701 -493.67)" fill="#fff" opacity="0.25"/>
    </g>
  </g>
</svg>
