<svg xmlns="http://www.w3.org/2000/svg" xmlns:xlink="http://www.w3.org/1999/xlink" width="284.552" height="45.837" viewBox="0 0 284.552 45.837">
  <defs>
    <linearGradient id="linear-gradient" x1="0.824" y1="0.126" x2="0.257" y2="0.904" gradientUnits="objectBoundingBox">
      <stop offset="0" stop-color="#19bfb6"/>
      <stop offset="1" stop-color="#19bfb6" stop-opacity="0"/>
    </linearGradient>
    <linearGradient id="linear-gradient-2" x1="1.023" y1="0.142" x2="0.122" y2="0.548" gradientUnits="objectBoundingBox">
      <stop offset="0" stop-color="#fff"/>
      <stop offset="1" stop-color="#30d2d9"/>
    </linearGradient>
    <linearGradient id="linear-gradient-3" x1="0.359" y1="-0.022" x2="0.63" y2="0.847" gradientUnits="objectBoundingBox">
      <stop offset="0" stop-color="#0d323d"/>
      <stop offset="1" stop-color="#009bb1"/>
    </linearGradient>
    <linearGradient id="linear-gradient-4" x1="-12.652" y1="-108.714" x2="1.53" y2="9.055" xlink:href="#linear-gradient-3"/>
    <linearGradient id="linear-gradient-6" x1="1.033" y1="0.332" x2="0.027" y2="1.026" gradientUnits="objectBoundingBox">
      <stop offset="0" stop-color="#0d323d" stop-opacity="0"/>
      <stop offset="1" stop-color="#19bfb6"/>
    </linearGradient>
    <linearGradient id="linear-gradient-7" x1="0.878" y1="-0.128" x2="0.004" y2="0.878" gradientUnits="objectBoundingBox">
      <stop offset="0" stop-color="#179289" stop-opacity="0"/>
      <stop offset="1" stop-color="#179289"/>
    </linearGradient>
    <linearGradient id="linear-gradient-8" x1="1.072" y1="-0.508" x2="-0.417" y2="2.595" xlink:href="#linear-gradient-6"/>
  </defs>
  <g id="Group_37" data-name="Group 37" transform="translate(-178.381 -420.551)">
    <path id="Path_16" data-name="Path 16" d="M37.3,461.229a2.731,2.731,0,0,0,2.061-.9,3.208,3.208,0,0,0,0-4.352,2.733,2.733,0,0,0-2.061-.9,2.646,2.646,0,0,0-2.012.9,3.254,3.254,0,0,0,0,4.352A2.644,2.644,0,0,0,37.3,461.229Zm-1.063-4.286a1.469,1.469,0,0,1,2.192,0,1.743,1.743,0,0,1,.442,1.21,1.768,1.768,0,0,1-.458,1.227,1.4,1.4,0,0,1-2.16,0,1.768,1.768,0,0,1-.458-1.227A1.742,1.742,0,0,1,36.235,456.943Z" transform="translate(320.051 -24.548)" fill="#0d323d"/>
    <path id="Path_17" data-name="Path 17" d="M32.249,494.416l6.674-1.309-.36-1.505-3.73.982a1.772,1.772,0,0,1-.752-1.5,1.817,1.817,0,0,1,.54-1.309,1.852,1.852,0,0,1,1.39-.556,2.42,2.42,0,0,1,.9.163,2.336,2.336,0,0,1,.605.328l.327-1.243a3.978,3.978,0,0,0-.981-.524,3.76,3.76,0,0,0-1.407-.262,2.939,2.939,0,0,0-2.192.867,2.972,2.972,0,0,0,.262,4.4l-1.57.425Z" transform="translate(321.829 -47.756)" fill="#0d323d"/>
    <path id="Path_18" data-name="Path 18" d="M106.688,568.489l7-1.374v-1.636l-7,1.374Z" transform="translate(268.623 -103.147)" fill="#0d323d"/>
    <rect id="Rectangle_1" data-name="Rectangle 1" width="2.487" height="2.748" transform="translate(379.63 436.125)" fill="#0d323d"/>
    <path id="Path_19" data-name="Path 19" d="M42.734,476.976H40.214v14.1h-9.75V469.843H27.946v21.234H18.588a15.594,15.594,0,0,1-3.714-.343,3.259,3.259,0,0,1-1.9-1.129,3.66,3.66,0,0,1-.572-2.192A34.163,34.163,0,0,1,12.863,483q.032-.457.163-1.374l-2.028-.1A35.944,35.944,0,0,0,10.147,488a5.238,5.238,0,0,0,.834,3.141,4.781,4.781,0,0,0,2.667,1.668,18.79,18.79,0,0,0,4.973.524H42.734Z" transform="translate(337.355 -35.06)" fill="#0d323d"/>
    <rect id="Rectangle_2" data-name="Rectangle 2" width="2.487" height="2.748" transform="translate(375.541 436.125)" fill="#0d323d"/>
    <rect id="Rectangle_3" data-name="Rectangle 3" width="2.748" height="3.173" transform="translate(400.308 435.7)" fill="#0d323d"/>
    <rect id="Rectangle_4" data-name="Rectangle 4" width="2.781" height="3.173" transform="translate(395.924 435.7)" fill="#0d323d"/>
    <path id="Path_20" data-name="Path 20" d="M169.773,493.468a11.183,11.183,0,0,0-4.679.8,4.817,4.817,0,0,0-2.453,2.618,13.137,13.137,0,0,0-.752,4.924,12.732,12.732,0,0,0,.785,4.973,4.865,4.865,0,0,0,2.519,2.584,11.718,11.718,0,0,0,4.744.786h7.46V493.861q-1.145-.13-3.664-.262T169.773,493.468Zm4.548,13.905H170.3a7.7,7.7,0,0,1-3.141-.523,3.179,3.179,0,0,1-1.652-1.734,8.849,8.849,0,0,1-.507-3.337,8.666,8.666,0,0,1,.491-3.223,3.2,3.2,0,0,1,1.62-1.734,7.186,7.186,0,0,1,3.059-.54q1.537,0,4.155.2Z" transform="translate(229.323 -51.879)" fill="#0d323d"/>
    <path id="Path_21" data-name="Path 21" d="M248.3,475.409l-7.133,1.407v1.832l7.133-1.407Z" transform="translate(172.883 -39.022)" fill="#0d323d"/>
    <path id="Path_22" data-name="Path 22" d="M334.52,468.354a2.8,2.8,0,0,0,2.111-.916,3.12,3.12,0,0,0,.867-2.225,3.22,3.22,0,0,0-.867-2.274,2.776,2.776,0,0,0-2.111-.933,2.741,2.741,0,0,0-2.078.933,3.22,3.22,0,0,0-.867,2.274,3.12,3.12,0,0,0,.867,2.225A2.761,2.761,0,0,0,334.52,468.354Zm-1.014-4.3a1.353,1.353,0,0,1,1.047-.474,1.32,1.32,0,0,1,1.014.474,1.68,1.68,0,0,1,.425,1.161,1.637,1.637,0,0,1-.425,1.129,1.318,1.318,0,0,1-1.014.474,1.351,1.351,0,0,1-1.047-.474,1.636,1.636,0,0,1-.425-1.129A1.68,1.68,0,0,1,333.505,464.051Z" transform="translate(108.517 -29.48)" fill="#0d323d"/>
    <path id="Path_23" data-name="Path 23" d="M268.687,493.068l-2.618.1q.523,4.876.523,7.165v6.314h-3.141a3.162,3.162,0,0,1-1.309-.294,5.307,5.307,0,0,1-1.112-.654,12.032,12.032,0,0,0,.425-3.337V494.7h-3.108v7.689a6.221,6.221,0,0,1-.671,3.043,2.245,2.245,0,0,1-2.11,1.211h-2.683V494.7h-3.108v11.942H240.55V493.133q-1.243-.262-3.19-.474a32.216,32.216,0,0,0-3.452-.213,8.47,8.47,0,0,0-4.237.9,5.03,5.03,0,0,0-2.225,2.83,16.687,16.687,0,0,0-.7,5.169,12.505,12.505,0,0,0,1.194,5.758q1.194,2.323,4.99,2.323h4.482a12.124,12.124,0,0,1-.36,3.386A2.56,2.56,0,0,1,236,514.367a3.607,3.607,0,0,1-1.8.392,33.089,33.089,0,0,1-4.94-.523v2.781a46.138,46.138,0,0,0,5.169.523,4.895,4.895,0,0,0,4.466-2.127,12.545,12.545,0,0,0,1.587-5.987h16.1a4.12,4.12,0,0,0,3.174-1.309,5.586,5.586,0,0,0,3.632,1.309H269.7v-9.1a23.992,23.992,0,0,0-.311-3.223Q269.079,495,268.687,493.068Zm-31.245,13.578h-3.5q-2.52,0-3.3-1.522a8.422,8.422,0,0,1-.785-3.877,8.094,8.094,0,0,1,1.063-4.63q1.031-1.39,3.681-1.39a20.48,20.48,0,0,1,2.847.229Z" transform="translate(183.151 -51.152)" fill="#0d323d"/>
    <path id="Path_24" data-name="Path 24" d="M390.035,420.437a2.475,2.475,0,0,0-2,.736,2.77,2.77,0,0,0-.621,1.849,5.251,5.251,0,0,0,.49,2.192l-1.93.523v1.276l7.165-1.407v-1.669a3.652,3.652,0,0,0-.72-2.5A2.854,2.854,0,0,0,390.035,420.437Zm1.309,3.861-1.734.491a3.581,3.581,0,0,1-.491-1.668.94.94,0,0,1,1.047-1.08,1.108,1.108,0,0,1,.981.425,1.855,1.855,0,0,1,.294,1.08A2.849,2.849,0,0,1,391.344,424.3Z" transform="translate(69.785 0.114)" fill="#0d323d"/>
    <rect id="Rectangle_5" data-name="Rectangle 5" width="3.109" height="20.482" transform="translate(457.89 437.793)" fill="#0d323d"/>
    <path id="Path_25" data-name="Path 25" d="M388.976,455.98a1.83,1.83,0,0,1,1.08-3.337,2.19,2.19,0,0,1,.851.164,2.354,2.354,0,0,1,.589.327l.36-1.473a4.316,4.316,0,0,0-2.421-.785,3.041,3.041,0,0,0-2.29.916,3.009,3.009,0,0,0-.883,2.16,3.127,3.127,0,0,0,.294,1.325,2.942,2.942,0,0,0,.883,1.1l-1.57.425.327,1.178,6.838-1.341L392.64,455Z" transform="translate(69.863 -21.556)" fill="#19bfb6"/>
    <path id="Path_26" data-name="Path 26" d="M527.924,496.786l-1.6-.8a4.914,4.914,0,0,1-1.3-.807.951.951,0,0,1-.264-.647.935.935,0,0,1,.415-.775,1.879,1.879,0,0,1,1.15-.312,4.565,4.565,0,0,1,2.987,1.63l2.7-2.7a7.056,7.056,0,0,0-5.719-2.876,5.771,5.771,0,0,0-4.066,1.462,4.615,4.615,0,0,0-1.59,3.522q0,3.2,4.218,5.32l1.47.735q1.9.958,1.9,1.965a1.205,1.205,0,0,1-.527.959,2.182,2.182,0,0,1-1.39.415,3.984,3.984,0,0,1-1.829-.551,6.209,6.209,0,0,1-1.8-1.446L520,504.806a7.249,7.249,0,0,0,6.07,2.971,6.515,6.515,0,0,0,4.561-1.549,5.291,5.291,0,0,0,.759-6.9A9.413,9.413,0,0,0,527.924,496.786Z" transform="translate(-316.529 -49.138)" fill="#0d323d"/>
    <path id="Path_27" data-name="Path 27" d="M585.885,500.832l-3.693-9.777H579.58l-3.76,9.888-3.5-9.888h-4.269l6.262,17.381h2.732l3.818-9.9,3.706,9.9h2.764l6.343-17.381h-4.3Z" transform="translate(-350.742 -50.245)" fill="#0d323d"/>
    <path id="Path_28" data-name="Path 28" d="M676.435,491.866a8.016,8.016,0,0,0-2.538-1.773,7.346,7.346,0,0,0-2.936-.591,7.577,7.577,0,0,0-5.776,2.572,9.338,9.338,0,0,0-2.378,6.6,9.112,9.112,0,0,0,2.457,6.494,7.735,7.735,0,0,0,5.824,2.612,7.167,7.167,0,0,0,2.785-.535,8.559,8.559,0,0,0,2.561-1.749v1.837H680.8V489.949h-4.361Zm-1.162,10.488a4.492,4.492,0,0,1-3.408,1.43,4.411,4.411,0,0,1-3.352-1.454,5.2,5.2,0,0,1-1.361-3.706,5.152,5.152,0,0,1,1.338-3.667,4.406,4.406,0,0,1,3.359-1.43,4.55,4.55,0,0,1,3.423,1.406,5.078,5.078,0,0,1,1.353,3.674A5.227,5.227,0,0,1,675.273,502.354Z" transform="translate(-418.2 -49.138)" fill="#0d323d"/>
    <path id="Path_29" data-name="Path 29" d="M734.741,472.115h5.239v21.2h2.4v-21.2h5.24v-2.3H734.741Z" transform="translate(-469.412 -35.122)" fill="#0d323d"/>
    <path id="Path_30" data-name="Path 30" d="M803,492.872a8.574,8.574,0,0,0-7.1-3.371,8.3,8.3,0,0,0-6.891,3.291,9.29,9.29,0,0,0-2.031,5.9,9.4,9.4,0,0,0,2.4,6.3,8.3,8.3,0,0,0,6.651,2.788,9.535,9.535,0,0,0,3.438-.583,8.516,8.516,0,0,0,2.735-1.7,10.275,10.275,0,0,0,2.142-2.94l-1.885-.99a10.425,10.425,0,0,1-1.9,2.466,6.782,6.782,0,0,1-2.135,1.226,7.427,7.427,0,0,1-2.583.462,6.173,6.173,0,0,1-4.622-1.937,7.073,7.073,0,0,1-1.935-4.965h15.639A9.4,9.4,0,0,0,803,492.872Zm-13.5,4.01a7.433,7.433,0,0,1,2.032-3.595,6.376,6.376,0,0,1,4.4-1.645,6.934,6.934,0,0,1,2.959.655,6.179,6.179,0,0,1,2.264,1.725,7.429,7.429,0,0,1,1.3,2.86Z" transform="translate(-506.606 -49.138)" fill="#0d323d"/>
    <path id="Path_31" data-name="Path 31" d="M870.549,491.61a7.429,7.429,0,0,1,6.272,3.051l1.773-1.1a7.5,7.5,0,0,0-1.9-2.157,9.286,9.286,0,0,0-2.724-1.374,10.606,10.606,0,0,0-3.33-.527,10.188,10.188,0,0,0-4.969,1.214,8.951,8.951,0,0,0-3.49,3.379,9.1,9.1,0,0,0-1.271,4.689,8.523,8.523,0,0,0,2.717,6.374,9.448,9.448,0,0,0,6.837,2.62,10.687,10.687,0,0,0,4.784-1.035,8.371,8.371,0,0,0,3.348-2.911l-1.773-1.166a8.011,8.011,0,0,1-10.03,2.126,6.769,6.769,0,0,1-2.648-2.6,7.043,7.043,0,0,1-.965-3.574,6.666,6.666,0,0,1,2.1-4.963A7.256,7.256,0,0,1,870.549,491.61Z" transform="translate(-559.236 -49.138)" fill="#0d323d"/>
    <path id="Path_32" data-name="Path 32" d="M951.662,477.675a5.908,5.908,0,0,0-2.228-2.66,6.16,6.16,0,0,0-3.458-.991,7.273,7.273,0,0,0-3.531.887,9.521,9.521,0,0,0-2.987,2.676v-9.825h-2.236v24.091h2.236v-6.374a22.958,22.958,0,0,1,.32-4.729,6.287,6.287,0,0,1,2.117-3.323,5.512,5.512,0,0,1,3.634-1.342,4.468,4.468,0,0,1,2.867.871,4.547,4.547,0,0,1,1.51,2.6,21.224,21.224,0,0,1,.239,4.01v8.292h2.237v-8.946A14.094,14.094,0,0,0,951.662,477.675Z" transform="translate(-613.566 -33.661)" fill="#0d323d"/>
    <g id="Group_36" data-name="Group 36" transform="translate(178.381 436.461)">
      <g id="Group_19" data-name="Group 19" transform="translate(0 0.661)">
        <path id="Path_33" data-name="Path 33" d="M432.9,500.292a7.336,7.336,0,0,1,1.949-4.989,7.211,7.211,0,0,1,.6-.583,7.341,7.341,0,0,1,4.813-1.791h4.09a7.759,7.759,0,0,0,3.252-.73c.1-.045.2-.094.3-.144a7.824,7.824,0,0,0,4.224-6.948c0-.051,0-.1,0-.153a7.619,7.619,0,0,0-.083-1.006,7.73,7.73,0,0,0-.567-1.973q-.075-.172-.16-.34c-.021-.046-.044-.091-.068-.135-.056-.11-.116-.218-.178-.325a7.86,7.86,0,0,0-2.993-2.923l.016.005c.066.024.134.048.2.074l.194.075.073.03.16.067q.21.09.417.189c.069.032.138.065.206.1.052.026.1.052.156.08s.073.036.108.057l.186.1c.05.028.1.056.152.086q.235.137.462.283c.054.034.108.07.161.106l.072.048c.055.036.108.074.162.112s.108.077.161.117.079.057.118.087c.121.091.239.185.356.28.041.032.08.065.119.1s.083.07.124.106a.043.043,0,0,1,.01.007c.057.049.113.1.169.151q.3.271.584.565c.041.042.081.086.121.128.014.014.026.028.039.043.041.044.082.09.122.135.07.077.137.155.2.235.036.043.073.087.108.13.1.117.189.235.28.356l.091.122.092.126.023.033c.037.052.073.1.108.156l.065.1a.238.238,0,0,1,.015.021q.066.1.129.2c.029.043.056.086.082.13.039.063.078.127.116.191.008.013.016.026.022.039.035.06.071.12.1.181l.067.122q.157.287.3.584c.036.074.071.149.1.224.01.023.021.047.03.071.034.077.067.154.1.232l.013.03c.036.089.07.177.1.267l.009.022c.017.045.034.09.049.136.027.075.053.151.079.227s.05.152.075.229c.019.061.037.122.056.183.031.1.06.207.088.312.014.052.028.1.039.158s.033.133.048.2c.02.084.038.17.056.256s.037.185.053.278c.012.066.024.133.033.2.022.129.041.261.057.393.011.084.021.17.029.255s.015.157.021.237c0,.031.005.062.007.094.005.075.011.151.014.227a.221.221,0,0,1,0,.028c0,.057.005.114.008.17s0,.1,0,.153c0,.084,0,.168,0,.252s0,.175,0,.261c0,.035,0,.072,0,.107,0,.068,0,.137-.009.205v.019c-.005.09-.011.181-.017.27,0,.005,0,.011,0,.017-.006.094-.015.188-.025.281s-.018.167-.028.249-.022.174-.035.26c-.006.041-.012.082-.019.121-.009.058-.018.115-.029.172q-.027.164-.061.324c-.017.087-.037.173-.056.259s-.04.167-.061.249c-.01.039-.019.08-.031.12s-.026.1-.041.15c-.006.026-.014.051-.021.076q-.023.08-.048.161c-.012.042-.024.082-.037.124q-.074.238-.16.469c-.026.069-.051.139-.078.207-.016.043-.033.086-.05.127-.046.114-.093.226-.142.337-.017.041-.035.081-.054.121l-.021.047c-.029.063-.059.125-.089.187s-.07.143-.106.215c-.05.1-.1.2-.154.293-.029.054-.059.107-.09.159-.067.121-.138.241-.212.358-.034.057-.069.112-.1.168s-.068.106-.1.158-.065.1-.1.145q-.192.281-.4.549c-.045.058-.091.116-.138.173-.034.043-.069.086-.1.127s-.09.107-.136.16-.111.127-.169.19-.114.126-.173.187-.087.091-.132.136a.5.5,0,0,1-.035.035c-.032.034-.064.066-.1.1s-.06.06-.09.089l-.116.11q-.252.237-.518.459l-.153.124c-.05.041-.1.081-.152.12l-.054.043-.144.108c-.12.089-.242.177-.366.261l-.106.071-.149.1-.025.016-.169.1q-.4.245-.814.456c-.062.032-.125.063-.188.093s-.1.05-.155.074-.092.043-.139.064c-.172.077-.348.151-.525.219-.06.024-.119.046-.18.067l-.07.027c-.074.027-.149.054-.224.078s-.177.059-.265.087l-.017.005c-.082.026-.167.05-.25.074s-.143.041-.215.059l-.125.032c-.066.017-.134.033-.2.048l-.007,0c-.088.02-.176.039-.266.058l-.012,0c-.081.017-.164.033-.246.047-.049.01-.1.018-.147.026-.129.022-.26.042-.391.059-.057.008-.112.015-.169.02s-.134.016-.2.022c-.082.009-.162.015-.244.022l-.028,0c-.09.008-.182.013-.273.017l-.229.01-.106,0c-.082,0-.166,0-.249,0Z" transform="translate(-432.901 -478.251)" fill="#0d323d"/>
      </g>
      <path id="Path_34" data-name="Path 34" d="M455.6,487.231c0-.048,0-.1,0-.143,0-.017,0-.033,0-.05l0-.112c0-.008,0-.014,0-.022l0-.071c0-.039,0-.076,0-.115,0-.018,0-.036,0-.054s0-.023,0-.033a.317.317,0,0,0,0-.034c0-.045-.005-.089-.009-.133a.019.019,0,0,0,0-.008.113.113,0,0,0,0-.017l-.007-.073c0-.041-.006-.082-.011-.123l-.006-.072c0-.019,0-.04-.006-.059V486.1l0-.029c0-.037-.008-.075-.013-.112,0-.012,0-.024,0-.037l-.006-.051c0-.012,0-.024,0-.035-.01-.068-.018-.138-.029-.206-.005-.034-.011-.068-.015-.1v0c-.013-.084-.027-.167-.043-.249,0-.019-.006-.037-.011-.056l0-.016c-.005-.039-.013-.077-.021-.116a.089.089,0,0,1,0-.009c0-.008,0-.016,0-.024s-.007-.033-.01-.049l-.009-.042c0-.01,0-.018-.005-.028-.006-.034-.014-.069-.022-.1,0-.007,0-.012,0-.018l-.016-.075c0-.013-.005-.026-.009-.037-.008-.032-.015-.063-.024-.094,0-.006,0-.012,0-.018-.005-.027-.012-.052-.018-.078s-.011-.043-.017-.064c-.01-.039-.021-.078-.031-.117s-.021-.078-.032-.118c0-.006,0-.012-.005-.018-.02-.071-.042-.142-.063-.213a.105.105,0,0,0-.006-.021c-.011-.036-.021-.072-.034-.108a.332.332,0,0,0-.014-.044c-.011-.034-.022-.069-.033-.1-.018-.056-.037-.11-.057-.165-.01-.028-.019-.056-.03-.083a.161.161,0,0,0-.008-.022c-.009-.026-.018-.052-.028-.077s-.019-.052-.03-.078-.029-.077-.044-.114c-.008-.02-.015-.04-.024-.06s-.015-.039-.023-.058c-.016-.041-.032-.081-.049-.121l-.023-.053c0-.009-.007-.017-.011-.026s-.01-.024-.015-.034l-.055-.124,0-.01c-.021-.046-.042-.093-.064-.139l0,0c-.024-.051-.047-.1-.072-.152a.006.006,0,0,0,0,0q-.029-.063-.061-.125l-.045-.09c-.014-.026-.027-.053-.042-.08-.027-.054-.054-.107-.083-.159-.019-.035-.037-.07-.058-.1a.3.3,0,0,0-.017-.031q-.066-.122-.137-.241l-.054-.092c-.031-.052-.063-.1-.1-.154-.012-.02-.024-.042-.038-.062s-.024-.039-.037-.057v0c-.041-.064-.082-.128-.125-.191l-.035-.052a11.364,11.364,0,0,0-9.4-4.99c-.084,0-.167,0-.249,0l-.106,0c-.076,0-.153.005-.229.009s-.183.01-.273.017l-.028,0c-.082.006-.163.013-.244.021l-.2.023c-.057.005-.112.013-.169.02-.132.017-.262.036-.391.059-.049.008-.1.016-.147.026-.082.014-.165.03-.246.047l-.012,0q-.135.027-.267.058l-.006,0c-.067.015-.135.031-.2.048l-.125.032c-.072.018-.143.038-.215.059s-.168.048-.25.074l-.017.005c-.089.028-.177.057-.265.087s-.15.051-.224.078l-.071.026c-.061.022-.12.044-.18.067-.177.069-.353.142-.525.219-.047.021-.093.042-.139.064s-.1.048-.155.074-.126.061-.188.093q-.417.21-.814.456l-.169.1-.024.016-.149.1-.106.071c-.124.084-.246.172-.366.261l-.144.108-.055.043c-.051.039-.1.079-.152.12s-.1.082-.153.124c-.178.148-.35.3-.518.459l-.116.11c-.03.029-.06.058-.09.089s-.064.062-.1.1a.494.494,0,0,0-.035.035c-.045.045-.088.09-.132.136-.059.061-.117.124-.173.187s-.114.126-.169.19-.092.107-.136.16-.071.085-.1.127c-.047.058-.093.115-.138.173q-.209.268-.4.549c-.033.048-.066.1-.1.146s-.07.1-.1.158-.071.111-.1.168q-.111.177-.212.359c-.031.052-.061.106-.09.159-.052.1-.1.195-.154.293-.037.072-.072.142-.106.215s-.06.124-.089.187l-.022.047c-.018.039-.036.08-.053.121-.049.111-.1.224-.142.337-.017.042-.034.085-.05.127-.027.069-.052.138-.078.208q-.085.231-.159.468c-.014.042-.026.082-.038.124s-.033.107-.048.16c-.008.025-.015.05-.021.076-.015.05-.028.1-.041.15s-.021.08-.031.12q-.032.124-.061.249c-.019.086-.039.172-.056.259q-.034.16-.061.324c-.011.057-.02.114-.029.172-.008.039-.013.08-.019.121-.013.086-.024.172-.035.26s-.019.166-.028.249-.018.187-.024.281c0,.005,0,.012,0,.017-.006.089-.012.18-.017.27v.019c0,.069-.006.137-.009.205,0,.035,0,.072,0,.107,0,.087,0,.174,0,.261s0,.169,0,.253c0,.051,0,.1,0,.153s0,.113.008.17a.239.239,0,0,0,0,.028c0,.076.008.152.014.227,0,.032,0,.063.007.094.006.079.013.159.021.237s.018.171.029.255c.016.132.035.263.057.393.01.067.021.134.033.2.016.093.034.186.054.278s.035.171.056.256c.015.067.031.134.048.2s.026.106.04.158c.028.1.057.209.088.312.018.061.036.122.056.183.025.077.049.153.075.229s.052.152.079.227c.015.046.032.091.049.136,0,.007.005.015.009.022.034.09.068.179.1.267l.013.03c.031.078.064.155.1.232.01.024.02.047.03.071.033.075.067.15.1.224q.138.3.3.584l.067.122c.033.061.068.121.1.181a.324.324,0,0,0,.022.038c.037.064.076.128.115.192.027.044.054.088.082.13.042.066.084.133.129.2a.188.188,0,0,0,.015.021c.021.032.043.064.065.1.035.052.071.1.108.156l.024.033.092.126c.03.041.06.081.091.122q.137.182.28.356c.035.044.072.088.108.13.067.079.135.157.2.234.04.045.081.091.122.135.013.015.026.029.039.043.04.043.08.086.121.128q.282.294.584.565c.056.051.112.1.169.151l.01.008q.061.054.124.106c.039.033.078.067.119.1.117.1.235.189.356.28.039.03.078.059.118.087s.107.078.16.117.107.076.161.112l.072.048c.054.036.107.071.162.106q.228.148.462.283c.05.03.1.059.152.087l.186.1c.035.02.071.039.108.057s.1.054.156.08c.069.035.137.069.207.1q.207.1.417.189l.16.067.073.03.194.075c.065.026.133.05.2.074l.016.005h0c.1.037.209.073.313.106.048.017.1.032.146.048l.034.009.081.025.107.031c.058.017.116.033.173.048a.712.712,0,0,0,.072.019c.029.009.058.015.087.022l.086.022.007,0,.083.021.117.026c.058.014.117.027.174.037l.026.006a.274.274,0,0,0,.044.009c.064.014.128.026.194.037l.018,0c.042.009.086.016.129.022l.145.025.061.009.056.009.169.024.017,0c.066.009.132.017.2.024l.064.007c.041.005.081.008.122.012.059.006.119.012.179.016.035,0,.072.007.108.009.052,0,.106.008.159.009.031,0,.063,0,.1.006s.092,0,.138.005c.028,0,.056,0,.083,0l.083,0c.083,0,.167,0,.25,0s.166,0,.249,0c.054,0,.11,0,.165-.005s.129,0,.195-.008c.083,0,.168-.01.25-.016h.019c.1-.007.188-.016.282-.026s.169-.018.252-.029l.154-.02.04-.005.1-.014.087-.014.036-.005.183-.031c.093-.016.186-.034.278-.054s.185-.039.276-.06l.249-.06.039-.011.014,0c.081-.021.161-.043.242-.066l.219-.065c.052-.016.106-.032.158-.05l.018-.006.033-.011.091-.03.053-.018c.067-.023.132-.045.2-.07l.086-.032.224-.086.02-.009c.059-.023.118-.047.175-.072l.054-.023c.083-.035.165-.071.247-.108q.489-.223.953-.489c.077-.044.154-.089.23-.135.153-.092.3-.188.449-.287.035-.024.071-.048.106-.073s.071-.048.1-.073.075-.052.111-.079l.116-.083.151-.115.021-.017.112-.088c.045-.034.089-.071.133-.106s.111-.092.166-.139c.083-.069.166-.141.246-.214l.011-.009c.039-.035.078-.071.116-.107s.06-.054.089-.082l0,0c.043-.041.086-.081.127-.123l.044-.043,0,0c.046-.045.091-.09.135-.136l0,0c.017-.016.033-.033.049-.05h0l.122-.129.042-.044s0,0,0,0l.005-.006.082-.09.088-.1,0,0,.008-.009.124-.142.024-.028.027-.032c.027-.032.054-.064.08-.1s.054-.064.079-.1c.056-.07.11-.139.164-.21s.108-.141.16-.213.091-.125.136-.189c.013-.018.026-.037.04-.056s.017-.024.024-.037l.084-.123.015-.023c.005-.008.01-.016.015-.023.043-.064.084-.13.125-.195l.018-.029,0-.008c.044-.069.086-.137.126-.207s.09-.153.134-.231.086-.155.128-.234l.076-.144c.025-.048.049-.1.073-.145q.074-.146.141-.294c.023-.049.046-.1.067-.149s.044-.1.065-.151l.031-.071a.139.139,0,0,1,.009-.021c.016-.039.032-.077.047-.117,0-.008.006-.014.009-.021.019-.047.037-.1.056-.142q.043-.111.083-.221t.074-.212c.028-.082.054-.163.08-.245l.01-.031c.026-.084.051-.167.075-.251.017-.061.033-.121.049-.182.011-.037.021-.073.029-.109.014-.056.028-.111.041-.167s.02-.086.03-.128c0-.011.005-.021.007-.033.016-.066.03-.134.044-.2a.02.02,0,0,0,0-.008l.006-.033c.016-.071.029-.143.042-.216a.192.192,0,0,0,0-.022c0-.009,0-.02.005-.03.013-.067.024-.136.034-.2l.006-.041c.006-.031.01-.062.014-.093l0-.023c.011-.074.02-.147.03-.22s.018-.152.026-.228a.244.244,0,0,0,0-.029c.008-.07.014-.139.019-.209l0-.044c0-.024,0-.048.005-.072v0c.006-.078.011-.156.015-.235s.006-.137.009-.207v-.013c0-.048,0-.094,0-.142v-.018c0-.069,0-.136,0-.2C455.6,487.281,455.6,487.257,455.6,487.231Zm-7.362.076a3.988,3.988,0,0,1-3.988,3.988,3.915,3.915,0,0,1-.677-.058l-.077-.014-.093-.018-.086-.019c-.086-.021-.17-.045-.254-.071l-.093-.03a4.011,4.011,0,0,1-.845-.4l-.059-.038c-.043-.028-.084-.056-.125-.086s-.05-.035-.075-.055a3.855,3.855,0,0,1-.391-.333l-.046-.045a3.981,3.981,0,0,1-.5-.613c-.012-.016-.022-.033-.033-.05l-.016-.024-.039-.064-.032-.054a3.982,3.982,0,0,1-.384-.887c-.016-.053-.03-.108-.044-.164-.007-.03-.015-.06-.021-.09s-.014-.066-.022-.1-.01-.054-.015-.082c-.015-.086-.027-.172-.036-.26,0-.006,0-.013,0-.019a4.054,4.054,0,0,1-.021-.412,3.988,3.988,0,0,1,3.885-3.987h4.091Z" transform="translate(-432.901 -475.956)" fill="#019db3"/>
      <g id="Group_20" data-name="Group 20">
        <path id="Path_35" data-name="Path 35" d="M455.6,475.956a7.336,7.336,0,0,1-1.949,4.99,7.361,7.361,0,0,1-2.155,1.614,7.321,7.321,0,0,1-3.259.76h-4.091a7.759,7.759,0,0,0-3.252.729c-.1.045-.2.094-.3.145a7.824,7.824,0,0,0-4.223,6.948c0,.051,0,.1,0,.153a7.636,7.636,0,0,0,.084,1.006,7.752,7.752,0,0,0,.567,1.973q.076.171.161.34c.022.046.044.091.069.135.056.11.115.218.177.325A7.861,7.861,0,0,0,440.43,498l-.016-.005c-.066-.024-.134-.048-.2-.074l-.194-.075-.073-.03-.16-.067q-.21-.09-.417-.189c-.07-.032-.138-.065-.207-.1-.052-.026-.1-.052-.156-.08s-.073-.037-.108-.057l-.186-.1c-.05-.028-.1-.057-.152-.087q-.234-.136-.462-.283c-.054-.034-.108-.069-.162-.106l-.072-.048c-.054-.036-.108-.074-.161-.112s-.108-.077-.16-.117-.079-.057-.118-.087c-.121-.091-.24-.185-.356-.28-.041-.032-.08-.065-.119-.1s-.083-.069-.124-.106l-.01-.008c-.057-.049-.114-.1-.169-.151q-.3-.271-.584-.565c-.041-.042-.081-.086-.121-.128-.014-.014-.027-.028-.039-.043-.041-.044-.082-.09-.122-.135-.069-.077-.137-.155-.2-.234-.036-.043-.073-.087-.108-.13q-.144-.175-.28-.356c-.031-.041-.061-.081-.091-.122l-.092-.126-.024-.033c-.037-.052-.073-.1-.108-.156-.022-.032-.044-.064-.065-.1a.188.188,0,0,1-.015-.021c-.044-.066-.087-.133-.129-.2-.029-.043-.056-.087-.082-.13-.039-.063-.078-.127-.115-.192a.324.324,0,0,1-.022-.038c-.035-.06-.071-.12-.1-.181l-.067-.122q-.157-.287-.3-.584c-.036-.074-.071-.149-.1-.224-.01-.024-.02-.047-.03-.071-.034-.077-.067-.154-.1-.232l-.013-.03c-.036-.089-.071-.177-.1-.267,0-.007-.005-.015-.009-.022-.017-.045-.034-.09-.049-.136-.027-.075-.054-.151-.079-.227s-.05-.152-.075-.229c-.019-.061-.037-.122-.056-.183-.031-.1-.06-.207-.088-.312-.014-.052-.028-.1-.04-.158s-.033-.133-.048-.2c-.02-.085-.039-.17-.056-.256s-.037-.185-.054-.278c-.012-.066-.023-.133-.033-.2-.021-.129-.041-.261-.057-.393-.011-.084-.02-.17-.029-.255s-.015-.157-.021-.237c0-.031-.005-.062-.007-.094-.005-.075-.011-.151-.014-.227a.239.239,0,0,1,0-.028c0-.057-.006-.113-.008-.17s0-.1,0-.153c0-.084,0-.168,0-.253s0-.174,0-.261c0-.035,0-.072,0-.107,0-.069,0-.137.009-.205v-.019c.005-.09.011-.181.017-.27,0-.005,0-.012,0-.017.006-.094.015-.188.024-.281s.018-.167.028-.249.023-.174.035-.26c.006-.041.012-.081.019-.121.009-.058.018-.116.029-.172q.027-.164.061-.324c.017-.087.036-.173.056-.259s.039-.167.061-.249c.01-.04.019-.08.031-.12s.026-.1.041-.15c.006-.026.014-.051.021-.076.015-.053.031-.107.048-.16s.024-.082.038-.124q.074-.237.159-.468c.026-.07.051-.139.078-.208.016-.043.033-.086.05-.127.046-.113.093-.226.142-.337.017-.041.035-.081.053-.121l.022-.047c.029-.063.059-.125.089-.187s.069-.143.106-.215c.05-.1.1-.2.154-.293.029-.054.059-.107.09-.159q.1-.182.212-.359c.034-.057.069-.112.1-.168s.068-.106.1-.158.065-.1.1-.146q.193-.281.4-.549c.045-.058.091-.116.138-.173.034-.043.069-.086.1-.127s.09-.107.136-.16.111-.127.169-.19.115-.126.173-.187c.044-.046.087-.091.132-.136a.494.494,0,0,1,.035-.035c.032-.034.064-.066.1-.1s.06-.06.09-.089l.116-.11c.168-.158.34-.311.518-.459.05-.042.1-.084.153-.124s.1-.081.152-.12l.055-.043.144-.108c.12-.089.242-.177.366-.261l.106-.071.149-.1.024-.016.169-.1q.4-.246.814-.456c.062-.032.125-.063.188-.093s.1-.05.155-.074.092-.043.139-.064c.172-.077.348-.151.525-.219.06-.023.119-.046.18-.067l.071-.026c.074-.027.149-.054.224-.078s.177-.059.265-.087l.017-.005c.082-.026.167-.05.25-.074s.143-.041.215-.059l.125-.032c.066-.017.134-.033.2-.048l.006,0q.132-.031.267-.058l.012,0c.081-.017.164-.033.246-.047.049-.009.1-.018.147-.026.129-.022.26-.042.391-.059.057-.008.112-.015.169-.02l.2-.023c.081-.008.162-.015.244-.021l.028,0c.09-.007.182-.013.273-.017s.153-.008.229-.009l.106,0c.082,0,.166,0,.249,0Z" transform="translate(-432.901 -475.956)" fill="#30d2d9"/>
      </g>
      <g id="Group_21" data-name="Group 21" transform="translate(3.477 4.989)">
        <path id="Path_36" data-name="Path 36" d="M464.2,499.638c0,.069,0,.136,0,.2v.018c0,.048,0,.094,0,.142v.013c0,.07-.005.138-.009.206s-.009.157-.015.235v0c0,.024,0,.048-.005.072l0,.044c-.005.07-.012.139-.019.209a.234.234,0,0,1,0,.029c-.007.076-.017.153-.026.228s-.019.147-.03.22l0,.023c0,.031-.009.062-.014.093l-.006.041c-.011.069-.021.137-.034.2,0,.01,0,.02-.005.03a.192.192,0,0,1,0,.023c-.013.073-.026.145-.042.216l-.006.033a.02.02,0,0,1,0,.008c-.014.067-.028.135-.044.2a.338.338,0,0,1-.007.033c-.01.043-.019.086-.03.128s-.027.112-.041.167c-.009.036-.018.073-.029.109-.016.061-.032.121-.049.182-.024.084-.049.168-.075.251l-.01.031c-.026.082-.052.164-.08.245s-.048.141-.074.212-.054.148-.083.221c-.018.047-.037.1-.056.142a.2.2,0,0,1-.009.021c-.015.039-.031.078-.047.117a.143.143,0,0,0-.009.021l-.031.071c-.021.05-.043.1-.065.151s-.044.1-.067.149q-.068.148-.141.294c-.023.049-.048.1-.073.146l-.076.144q-.063.119-.128.235c-.044.078-.089.155-.134.231s-.083.138-.126.207l0,.007-.018.029c-.041.065-.082.13-.125.195l-.015.023-.015.022-.083.123c-.008.013-.016.024-.025.037s-.027.037-.04.056c-.045.064-.09.127-.136.189s-.1.143-.16.213-.108.14-.164.21c-.026.033-.052.065-.079.1s-.053.064-.08.1l-.027.032-.024.028-.124.142-.008.009,0,0-.088.1-.082.09-.006.006s0,0,0,0l-.042.044-.122.129h0c-.016.017-.032.034-.049.05l0,0c-.044.046-.089.091-.135.136l0,0-.044.043c-.042.042-.085.082-.127.123l0,0c-.029.028-.059.056-.089.082s-.077.072-.116.107l-.011.01c-.08.073-.163.145-.246.214-.054.047-.11.093-.166.139s-.088.071-.133.106l-.112.088-.021.017-.151.115-.115.083c-.036.027-.074.054-.111.079s-.069.049-.1.073l-.106.073c-.147.1-.3.195-.449.287q-.114.069-.23.135-.464.267-.953.489c-.082.037-.164.073-.247.108l-.054.022c-.058.025-.117.049-.175.072l-.02.009-.224.086-.086.032c-.065.025-.13.047-.2.07l-.053.018-.091.03-.033.011-.018.005c-.052.018-.106.034-.158.05l-.219.065c-.08.023-.16.045-.242.066l-.014,0-.039.011-.249.06c-.091.021-.183.042-.276.06s-.185.037-.278.054l-.183.031-.036.005-.087.014-.1.014-.04.005-.154.021c-.083.011-.168.02-.252.029s-.187.018-.282.026H453.7c-.082.006-.167.012-.25.016-.065,0-.13.006-.195.007s-.11,0-.165.005c-.084,0-.166,0-.249,0s-.167,0-.25,0l-.084,0c-.028,0-.056,0-.083,0-.046,0-.092,0-.138-.005s-.064,0-.1-.005c-.054,0-.107-.005-.159-.01-.037,0-.073,0-.108-.009-.06,0-.12-.01-.179-.016-.041,0-.081-.007-.122-.012l-.064-.007c-.067-.006-.134-.015-.2-.024l-.017,0-.169-.024-.056-.009-.061-.009-.145-.025c-.044-.006-.088-.014-.129-.022l-.018,0c-.065-.012-.129-.023-.194-.037a.254.254,0,0,1-.044-.01l-.026-.005c-.058-.011-.116-.023-.174-.037l-.117-.026-.083-.021-.007,0-.086-.022c-.029-.007-.058-.014-.087-.022a.717.717,0,0,1-.072-.019c-.058-.015-.115-.031-.173-.048l-.107-.031c-.088-.026-.174-.054-.261-.082-.1-.033-.21-.069-.313-.106h0a7.861,7.861,0,0,1-2.993-2.922c-.062-.107-.122-.215-.177-.325-.024-.044-.047-.089-.069-.135q-.085-.168-.16-.34a7.75,7.75,0,0,1-.567-1.973,7.607,7.607,0,0,1-.083-1.006c0-.052,0-.1,0-.153a7.824,7.824,0,0,1,4.223-6.948c.1-.05.2-.1.3-.145a7.761,7.761,0,0,1,3.252-.729,3.987,3.987,0,0,0-3.885,3.987,4.037,4.037,0,0,0,.021.412c0,.006,0,.013,0,.019.01.088.021.174.036.26.005.028.01.056.015.082s.014.068.022.1.014.06.021.09c.013.056.028.11.044.164a3.981,3.981,0,0,0,.384.887l.032.054.039.064.016.024h0c.011.016.021.033.033.049a3.993,3.993,0,0,0,.5.613l.046.045a3.856,3.856,0,0,0,.391.333c.024.019.05.037.075.055.041.03.082.058.125.085l.059.038a4.013,4.013,0,0,0,.845.4l.093.03c.084.026.168.049.254.071l.086.019.093.018.077.014a3.921,3.921,0,0,0,.677.058,3.988,3.988,0,0,0,3.988-3.988v-3.988a7.346,7.346,0,0,0,4.813-1.791,7.209,7.209,0,0,0,.6-.583l.035.052c.043.063.085.127.125.191v0c.013.018.025.037.037.057s.027.041.038.062c.032.05.064.1.1.154l.054.092c.046.079.092.159.137.241a.314.314,0,0,1,.017.031q.072.13.141.263c.015.027.028.054.042.08l.045.09q.032.063.061.125a.006.006,0,0,1,0,0c.025.05.048.1.072.152l0,0c.012.024.023.046.032.069l.035.079.055.124c.005.011.01.023.015.034s.008.017.011.026l.022.053.037.089c0,.011.008.021.012.032s.016.039.023.058.016.039.024.06c.015.037.03.076.044.114s.021.051.03.078.019.05.028.077a.173.173,0,0,1,.008.022c.011.027.02.056.03.083.019.055.038.109.057.165q.017.05.033.1a.307.307,0,0,1,.014.044c.012.036.024.072.034.108a.107.107,0,0,1,.006.021c.021.071.043.141.063.213,0,.007,0,.013.005.018.011.04.022.078.032.118s.021.078.031.117.025.094.035.142c0,.006,0,.012,0,.018.008.028.014.057.022.084,0,0,0,.006,0,.01s.005.024.009.037l.016.075c0,.006,0,.012,0,.018a.476.476,0,0,1,.013.056l.01.046c0,.01,0,.018.005.028l.01.042c0,.016.007.032.01.049s0,.016,0,.024a.058.058,0,0,0,0,.009c0,.018.007.036.012.054,0,0,0,0,0,.008s.006.035.008.054l0,.016c0,.018.008.036.011.056.016.082.03.166.043.249l.016.106c.011.068.019.138.029.206,0,.012,0,.024,0,.035l.006.051c0,.013,0,.026,0,.037l.013.112,0,.029v.008c0,.02,0,.04.006.059s0,.048.006.071c0,.041.008.082.011.123l.007.073c0,.005,0,.012,0,.017a.018.018,0,0,1,0,.007c0,.044.006.088.009.133a.335.335,0,0,1,0,.034c0,.011,0,.022,0,.033,0,.028,0,.056.005.084s0,.056,0,.085l0,.071c0,.008,0,.014,0,.022s0,.035,0,.052,0,.039,0,.06,0,.033,0,.05c0,.047,0,.1,0,.143C464.2,499.588,464.2,499.613,464.2,499.638Z" transform="translate(-444.97 -493.277)" fill="#177075"/>
        <path id="Path_37" data-name="Path 37" d="M460.129,552.843c.122.041.244.078.368.113C460.373,552.922,460.251,552.885,460.129,552.843Z" transform="translate(-455.762 -535.685)" fill="#009bb1" opacity="0.1"/>
      </g>
      <g id="Group_23" data-name="Group 23" transform="translate(7.386 4.989)">
        <g id="Group_22" data-name="Group 22">
          <path id="Path_38" data-name="Path 38" d="M473.857,499.563a7.609,7.609,0,0,1-1.049,3.8,7.661,7.661,0,0,1-6.62,3.8,7.665,7.665,0,0,1-4.665-1.582,7.72,7.72,0,0,1-1.72-1.838l-.071-.108a7.689,7.689,0,0,1-.58-1.086,7.576,7.576,0,0,1-.61-2.471c.01.088.021.174.036.26.005.028.01.056.015.082s.014.068.022.1.014.06.021.09c.014.056.028.11.044.164a3.983,3.983,0,0,0,.384.887l.032.054.039.064.016.024h0c.011.016.021.033.033.049a3.979,3.979,0,0,0,.5.613l.046.045a3.857,3.857,0,0,0,.391.333c.024.019.05.037.075.055.041.03.082.058.125.085l.059.038a4.011,4.011,0,0,0,.845.4l.093.03c.083.026.168.049.254.071l.086.019.093.018.077.014a3.921,3.921,0,0,0,.677.058,3.988,3.988,0,0,0,3.988-3.988v-3.988a7.346,7.346,0,0,0,4.813-1.791,7.218,7.218,0,0,0,.6-.583l.035.052c.043.063.085.127.125.191v0c.013.018.025.037.037.057s.026.041.038.062c.032.05.064.1.1.154l.054.092c.046.079.092.159.137.241a.315.315,0,0,1,.017.031c.02.034.039.069.058.1.029.052.056.106.083.159.015.027.028.054.042.08l.045.09c.021.042.042.084.061.125a.006.006,0,0,1,0,0c.025.05.048.1.072.152l0,0c.012.024.022.046.032.069l.032.07.058.134c.005.011.009.023.015.034l.011.026.022.053.037.089.035.09c.009.02.016.039.024.06.015.037.03.076.044.114s.02.051.03.078.019.05.028.077a.173.173,0,0,1,.008.022c.011.027.02.056.03.083.019.055.038.109.057.165q.017.05.033.1a.307.307,0,0,1,.014.044c.012.036.024.072.034.108a.1.1,0,0,1,.006.021c.021.071.043.141.063.213,0,.007,0,.013.005.018.011.04.023.078.032.118s.021.078.031.117c.006.021.012.043.017.064.015.06.03.12.044.181,0,0,0,.006,0,.01s.005.024.009.037c.012.049.023.1.033.15l.009.046c.005.024.011.046.015.07s.007.032.01.049l.006.032c0,.018.007.036.012.054,0,0,0,0,0,.008.007.042.016.084.022.125.016.082.03.166.043.249l.016.106c.011.068.019.138.029.206,0,.012,0,.024,0,.035l.006.051c0,.013,0,.026,0,.037l.013.112,0,.029v.008c0,.02,0,.04.006.059s0,.048.006.071c0,.041.008.082.011.123,0,.025,0,.048.007.073,0,.005,0,.012,0,.017a.018.018,0,0,1,0,.007c0,.044.006.088.009.133a.318.318,0,0,1,0,.034c0,.029,0,.058.005.088a.263.263,0,0,1,0,.03c0,.028,0,.056,0,.085l0,.071c0,.008,0,.014,0,.022s0,.035,0,.052,0,.039,0,.06,0,.033,0,.05C473.856,499.466,473.857,499.515,473.857,499.563Z" transform="translate(-458.543 -493.277)" fill="#0d323d"/>
        </g>
      </g>
      <g id="Group_24" data-name="Group 24">
        <path id="Path_39" data-name="Path 39" d="M455.6,487.307a11.351,11.351,0,0,1-22.7,0c0-.165,0-.327.011-.49a10.395,10.395,0,1,0,10.85-10.851c.162-.008.325-.011.49-.011A11.352,11.352,0,0,1,455.6,487.307Z" transform="translate(-432.901 -475.956)" opacity="0.1" fill="url(#linear-gradient)"/>
      </g>
      <g id="Group_26" data-name="Group 26" opacity="0.5">
        <g id="Group_25" data-name="Group 25">
          <path id="Path_40" data-name="Path 40" d="M455.6,475.956a7.654,7.654,0,0,1-6.456,3.528h-5.09a10.533,10.533,0,0,0-10.544,10.544,10.393,10.393,0,0,0,.061,1.131,11.36,11.36,0,0,1,7.3-14.693l.017-.005a11.409,11.409,0,0,1,3.358-.505Z" transform="translate(-432.901 -475.956)" fill="url(#linear-gradient-2)"/>
        </g>
      </g>
      <g id="Group_27" data-name="Group 27" transform="translate(3.477 7.364)" opacity="0.25">
        <path id="Path_41" data-name="Path 41" d="M464.2,505.508c0,.069,0,.136,0,.2v.018c0,.048,0,.094,0,.142v.013c0,.07-.005.138-.009.207s-.009.157-.015.235v0c0,.024,0,.048-.005.072l0,.044c-.005.07-.012.139-.019.209a.233.233,0,0,1,0,.029c-.007.076-.017.153-.026.228s-.019.147-.03.22l0,.023c0,.031-.009.062-.014.093l-.006.041c-.011.069-.021.137-.034.2,0,.01,0,.02-.005.03a.194.194,0,0,1,0,.022c-.013.073-.026.145-.042.216l-.006.033a.02.02,0,0,1,0,.008c-.014.067-.028.135-.044.2,0,.012,0,.023-.007.033-.01.043-.019.086-.03.128s-.027.111-.041.167c-.009.036-.018.073-.029.109-.016.061-.032.121-.049.182-.024.084-.049.168-.075.251l-.01.031c-.026.082-.052.164-.08.245s-.048.141-.074.212-.054.147-.083.221c-.018.047-.037.1-.056.142,0,.007-.005.014-.009.021-.015.039-.031.078-.047.117a.141.141,0,0,0-.009.021l-.031.071c-.021.05-.043.1-.065.151s-.044.1-.067.149q-.068.148-.141.294c-.023.049-.048.1-.073.145l-.076.144q-.063.119-.128.235c-.044.078-.089.155-.134.231s-.083.138-.126.207l0,.007-.018.029c-.041.065-.082.13-.125.195l-.015.023-.015.022-.083.123c-.008.013-.016.024-.025.037s-.027.037-.04.056c-.045.064-.09.127-.136.189s-.1.143-.16.213-.108.14-.164.21c-.026.033-.052.065-.079.1s-.053.064-.08.1l-.027.032-.024.028-.124.142-.008.009,0,0-.088.1-.082.09-.006.006s0,0,0,0l-.042.044-.122.129h0c-.016.017-.032.034-.049.05l0,0c-.044.046-.089.091-.135.136l0,0-.044.043c-.042.042-.085.082-.127.123l0,0c-.029.028-.059.056-.089.082s-.077.072-.116.107l-.011.009c-.08.073-.163.145-.246.214-.054.047-.11.093-.166.139s-.088.071-.133.106l-.112.088-.021.017-.151.115-.115.083c-.036.027-.074.054-.111.079s-.069.049-.1.073-.07.048-.106.073c-.147.1-.3.195-.449.287q-.114.069-.23.135-.464.267-.953.489c-.082.037-.164.073-.247.108l-.054.023c-.058.025-.117.049-.175.072l-.02.009c-.074.029-.149.058-.224.086l-.086.032c-.065.025-.13.047-.2.07l-.053.018-.091.03-.033.011-.018.005c-.052.018-.106.034-.158.05l-.219.065c-.08.023-.16.045-.242.066l-.014,0-.039.011-.249.06c-.091.021-.183.042-.276.06s-.185.037-.278.054l-.183.031-.036.005-.087.014-.1.014-.04.005-.154.021c-.083.011-.168.02-.252.029s-.187.018-.282.026H453.7c-.082.006-.167.012-.25.016-.065,0-.13.006-.195.008s-.11,0-.165.005c-.084,0-.166,0-.249,0s-.167,0-.25,0l-.084,0c-.028,0-.056,0-.083,0-.046,0-.092,0-.138-.006s-.064,0-.1-.005c-.054,0-.107-.005-.159-.009-.037,0-.073,0-.108-.009-.06,0-.12-.009-.179-.016-.041,0-.081-.007-.122-.012l-.064-.008c-.067-.006-.134-.015-.2-.024l-.017,0-.169-.024-.056-.009-.061-.01-.145-.025c-.044-.006-.088-.014-.129-.022l-.018,0c-.065-.012-.129-.023-.194-.037a.272.272,0,0,1-.044-.009l-.026-.005c-.058-.011-.116-.023-.174-.038l-.117-.026-.083-.02-.007,0-.086-.022c-.029-.008-.058-.014-.087-.023a.7.7,0,0,1-.072-.019c-.058-.015-.115-.031-.173-.048l-.107-.031-.061-.018-.026-.008-.174-.056c-.1-.033-.21-.069-.313-.106h0a7.86,7.86,0,0,1-2.993-2.922c-.062-.107-.122-.215-.177-.325-.024-.044-.047-.089-.069-.135q-.085-.169-.16-.34a7.751,7.751,0,0,1-.567-1.973,7.606,7.606,0,0,1-.083-1.006c0-.052,0-.1,0-.153a7.824,7.824,0,0,1,4.223-6.948c.1-.05.2-.1.3-.145a7.761,7.761,0,0,1,3.252-.729,3.988,3.988,0,0,0-3.885,3.987,4.037,4.037,0,0,0,.021.412c0,.006,0,.013,0,.019a7.579,7.579,0,0,0,.61,2.471,7.7,7.7,0,0,0,.58,1.086l.071.108a7.723,7.723,0,0,0,1.72,1.838,7.669,7.669,0,0,0,12.334-6.01C464.2,505.458,464.2,505.482,464.2,505.508Z" transform="translate(-444.97 -501.521)" fill="url(#linear-gradient-3)"/>
        <path id="Path_42" data-name="Path 42" d="M460.129,552.843c.122.041.244.078.368.113C460.373,552.922,460.251,552.885,460.129,552.843Z" transform="translate(-455.762 -538.059)" opacity="0.1" fill="url(#linear-gradient-4)"/>
      </g>
      <g id="Group_29" data-name="Group 29">
        <g id="Group_28" data-name="Group 28">
          <path id="Path_43" data-name="Path 43" d="M455.6,475.956a7.336,7.336,0,0,1-1.949,4.99,7.361,7.361,0,0,1-2.155,1.614,7.321,7.321,0,0,1-3.259.76h-4.091a7.759,7.759,0,0,0-3.252.729c-.1.045-.2.094-.3.145a7.824,7.824,0,0,0-4.223,6.948c0,.051,0,.1,0,.153a7.636,7.636,0,0,0,.084,1.006,7.752,7.752,0,0,0,.567,1.973q.076.171.161.34c.022.046.044.091.069.135.056.11.115.218.177.325A7.861,7.861,0,0,0,440.43,498l-.016-.005c-.066-.024-.134-.048-.2-.074l-.194-.075-.073-.03-.16-.067q-.21-.09-.417-.189c-.07-.032-.138-.065-.207-.1-.052-.026-.1-.052-.156-.08s-.073-.037-.108-.057l-.186-.1c-.05-.028-.1-.057-.152-.087q-.234-.136-.462-.283c-.054-.034-.108-.069-.162-.106l-.072-.048c-.054-.036-.108-.074-.161-.112s-.108-.077-.16-.117-.079-.057-.118-.087c-.121-.091-.24-.185-.356-.28-.041-.032-.08-.065-.119-.1s-.083-.069-.124-.106l-.01-.008c-.057-.049-.114-.1-.169-.151q-.3-.271-.584-.565c-.041-.042-.081-.086-.121-.128-.014-.014-.027-.028-.039-.043-.041-.044-.082-.09-.122-.135-.069-.077-.137-.155-.2-.234-.036-.043-.073-.087-.108-.13q-.144-.175-.28-.356c-.031-.041-.061-.081-.091-.122l-.092-.126-.024-.033c-.037-.052-.073-.1-.108-.156-.022-.032-.044-.064-.065-.1a.188.188,0,0,1-.015-.021c-.044-.066-.087-.133-.129-.2-.029-.043-.056-.087-.082-.13-.039-.063-.078-.127-.115-.192a.324.324,0,0,1-.022-.038c-.035-.06-.071-.12-.1-.181l-.067-.122q-.157-.287-.3-.584c-.036-.074-.071-.149-.1-.224-.01-.024-.02-.047-.03-.071-.034-.077-.067-.154-.1-.232l-.013-.03c-.036-.089-.071-.177-.1-.267,0-.007-.005-.015-.009-.022-.017-.045-.034-.09-.049-.136-.027-.075-.054-.151-.079-.227s-.05-.152-.075-.229c-.019-.061-.037-.122-.056-.183-.031-.1-.06-.207-.088-.312-.014-.052-.028-.1-.04-.158s-.033-.133-.048-.2c-.02-.085-.039-.17-.056-.256s-.037-.185-.054-.278c-.012-.066-.023-.133-.033-.2-.021-.129-.041-.261-.057-.393-.011-.084-.02-.17-.029-.255s-.015-.157-.021-.237c0-.031-.005-.062-.007-.094-.005-.075-.011-.151-.014-.227a.239.239,0,0,1,0-.028c0-.057-.006-.113-.008-.17s0-.1,0-.153c0-.084,0-.168,0-.253s0-.174,0-.261c0-.035,0-.072,0-.107,0-.069,0-.137.009-.205v-.019c.005-.09.011-.181.017-.27,0-.005,0-.012,0-.017.006-.094.015-.188.024-.281s.018-.167.028-.249.023-.174.035-.26c.006-.041.012-.081.019-.121.009-.058.018-.116.029-.172q.027-.164.061-.324c.017-.087.036-.173.056-.259s.039-.167.061-.249c.01-.04.019-.08.031-.12s.026-.1.041-.15c.006-.026.014-.051.021-.076.015-.053.031-.107.048-.16s.024-.082.038-.124q.074-.237.159-.468c.026-.07.051-.139.078-.208.016-.043.033-.086.05-.127.046-.113.093-.226.142-.337.017-.041.035-.081.053-.121l.022-.047c.029-.063.059-.125.089-.187s.069-.143.106-.215c.05-.1.1-.2.154-.293.029-.054.059-.107.09-.159q.1-.182.212-.359c.034-.057.069-.112.1-.168s.068-.106.1-.158.065-.1.1-.146q.193-.281.4-.549c.045-.058.091-.116.138-.173.034-.043.069-.086.1-.127s.09-.107.136-.16.111-.127.169-.19.115-.126.173-.187c.044-.046.087-.091.132-.136a.494.494,0,0,1,.035-.035c.032-.034.064-.066.1-.1s.06-.06.09-.089l.116-.11c.168-.158.34-.311.518-.459.05-.042.1-.084.153-.124s.1-.081.152-.12l.055-.043.144-.108c.12-.089.242-.177.366-.261l.106-.071.149-.1.024-.016.169-.1q.4-.246.814-.456c.062-.032.125-.063.188-.093s.1-.05.155-.074.092-.043.139-.064c.172-.077.348-.151.525-.219.06-.023.119-.046.18-.067l.071-.026c.074-.027.149-.054.224-.078s.177-.059.265-.087l.017-.005c.082-.026.167-.05.25-.074s.143-.041.215-.059l.125-.032c.066-.017.134-.033.2-.048l.006,0q.132-.031.267-.058l.012,0c.081-.017.164-.033.246-.047.049-.009.1-.018.147-.026.129-.022.26-.042.391-.059.057-.008.112-.015.169-.02l.2-.023c.081-.008.162-.015.244-.021l.028,0c.09-.007.182-.013.273-.017s.153-.008.229-.009l.106,0c.082,0,.166,0,.249,0Z" transform="translate(-432.901 -475.956)" fill="#19bfb6"/>
        </g>
      </g>
      <g id="Group_31" data-name="Group 31" opacity="0.5">
        <g id="Group_30" data-name="Group 30">
          <path id="Path_44" data-name="Path 44" d="M455.6,475.956a7.654,7.654,0,0,1-6.456,3.528h-5.09a10.533,10.533,0,0,0-10.544,10.544,10.393,10.393,0,0,0,.061,1.131,11.36,11.36,0,0,1,7.3-14.693l.017-.005a11.409,11.409,0,0,1,3.358-.505Z" transform="translate(-432.901 -475.956)" fill="url(#linear-gradient-2)"/>
        </g>
      </g>
      <g id="Group_32" data-name="Group 32" transform="translate(0.001 7.499)" opacity="0.25">
        <path id="Path_45" data-name="Path 45" d="M432.905,517.192a7.652,7.652,0,0,1,6.456-3.528h5.09a10.533,10.533,0,0,0,10.544-10.544,10.386,10.386,0,0,0-.061-1.131,11.36,11.36,0,0,1-7.3,14.693l-.017.005a11.393,11.393,0,0,1-3.358.5Z" transform="translate(-432.905 -501.989)" fill="url(#linear-gradient-6)"/>
      </g>
      <g id="Group_35" data-name="Group 35" opacity="0.5">
        <g id="Group_34" data-name="Group 34">
          <g id="Group_33" data-name="Group 33">
            <path id="Path_46" data-name="Path 46" d="M450.822,475.956a8.5,8.5,0,0,1-1.538,4.99,6.744,6.744,0,0,1-.475.583,5.853,5.853,0,0,1-1.226,1.031,4.814,4.814,0,0,1-2.573.76h-.861c-.052,0-.1,0-.156,0-.078,0-.155,0-.233.009l-.061,0a10.008,10.008,0,0,0-9.435,9.368q-.151-.276-.283-.562c-.036-.074-.071-.149-.1-.224-.01-.024-.02-.047-.03-.071-.034-.077-.067-.154-.1-.232l-.013-.03c-.036-.089-.071-.177-.1-.267,0-.007-.005-.015-.009-.022-.017-.045-.034-.09-.049-.136-.027-.075-.054-.151-.079-.227s-.05-.152-.075-.229c-.019-.061-.037-.122-.056-.183-.031-.1-.06-.207-.088-.312-.014-.052-.028-.1-.04-.158s-.033-.133-.048-.2c-.02-.085-.039-.17-.056-.256s-.037-.185-.054-.278c-.012-.066-.023-.133-.033-.2-.021-.129-.041-.261-.057-.393-.011-.084-.02-.17-.029-.255s-.015-.157-.021-.237c0-.031-.005-.062-.007-.094-.005-.075-.011-.151-.014-.227a.239.239,0,0,1,0-.028c0-.057-.006-.113-.008-.17s0-.1,0-.153c0-.084,0-.168,0-.253s0-.174,0-.261c0-.035,0-.072,0-.107,0-.069,0-.137.009-.205v-.019c.005-.09.011-.181.017-.27,0-.005,0-.012,0-.017.006-.094.015-.188.024-.281s.018-.167.028-.249.023-.174.035-.26c.006-.041.012-.081.019-.121.009-.058.018-.116.029-.172q.027-.164.061-.324c.017-.087.036-.173.056-.259s.039-.167.061-.249c.01-.04.019-.08.031-.12s.026-.1.041-.15c.006-.026.014-.051.021-.076.015-.053.031-.107.048-.16s.024-.082.038-.124q.074-.237.159-.468c.026-.07.051-.139.078-.208.016-.043.033-.086.05-.127.046-.113.093-.226.142-.337.017-.041.035-.081.053-.121l.022-.047c.029-.063.059-.125.089-.187s.069-.143.106-.215c.05-.1.1-.2.154-.293.029-.054.059-.107.09-.159q.1-.182.212-.359c.034-.057.069-.112.1-.168s.068-.106.1-.158.065-.1.1-.146q.193-.281.4-.549c.045-.058.091-.116.138-.173.034-.043.069-.086.1-.127s.09-.107.136-.16.111-.127.169-.19.115-.126.173-.187c.044-.046.087-.091.132-.136a.494.494,0,0,1,.035-.035c.032-.034.064-.066.1-.1s.06-.06.09-.089l.116-.11c.168-.158.34-.311.518-.459.05-.042.1-.084.153-.124s.1-.081.152-.12l.055-.043.144-.108c.12-.089.242-.177.366-.261l.106-.071.149-.1.024-.016.169-.1q.4-.246.814-.456c.062-.032.125-.063.188-.093s.1-.05.155-.074.092-.043.139-.064c.172-.077.348-.151.525-.219.06-.023.119-.046.18-.067l.071-.026c.074-.027.149-.054.224-.078s.177-.059.265-.087l.017-.005c.082-.026.167-.05.25-.074s.143-.041.215-.059l.125-.032c.066-.017.134-.033.2-.048l.006,0q.132-.031.267-.058l.012,0c.081-.017.164-.033.246-.047.049-.009.1-.018.147-.026.129-.022.26-.042.391-.059.057-.008.112-.015.169-.02l.2-.023c.081-.008.162-.015.244-.021l.028,0c.09-.007.182-.013.273-.017s.153-.008.229-.009l.106,0c.082,0,.166,0,.249,0Z" transform="translate(-432.901 -475.956)" fill="url(#linear-gradient-7)"/>
          </g>
        </g>
      </g>
      <path id="Path_47" data-name="Path 47" d="M479,502.411a6.351,6.351,0,0,1-6.18,6.349h-.031a3.988,3.988,0,0,0,3.847-3.986v-3.988a7.329,7.329,0,0,0,2.069-.3A6.356,6.356,0,0,1,479,502.411Z" transform="translate(-461.302 -493.424)" opacity="0.25" fill="url(#linear-gradient-8)"/>
    </g>
  </g>
</svg>
