<svg id="Page-1" xmlns="http://www.w3.org/2000/svg" width="129.976" height="44" viewBox="0 0 129.976 44">
  <g id="Artboard-1">
    <g id="App-Store">
      <path id="background" d="M4.28,0H123.7a5.284,5.284,0,0,1,5.28,5.28V38.72A5.284,5.284,0,0,1,123.7,44H4.28A5.284,5.284,0,0,1-1,38.72V5.28A5.284,5.284,0,0,1,4.28,0Z" transform="translate(1)" fill="#fff"/>
      <g id="icon" transform="translate(11.526 7.744)">
        <path id="Fill-2" d="M16.9,75.511a5.674,5.674,0,0,1,2.693-4.752,5.836,5.836,0,0,0-4.567-2.473c-1.918-.2-3.784,1.153-4.761,1.153-.994,0-2.508-1.126-4.127-1.1a6.068,6.068,0,0,0-5.113,3.124c-2.209,3.828-.563,9.46,1.558,12.558,1.065,1.514,2.3,3.212,3.925,3.15,1.584-.062,2.182-1.012,4.092-1.012s2.455,1.012,4.11.977c1.707-.026,2.772-1.522,3.8-3.054a12.413,12.413,0,0,0,1.734-3.538A5.488,5.488,0,0,1,16.9,75.511" transform="translate(0.023 -62.258)"/>
        <path id="Fill-3" d="M118.122,4A5.583,5.583,0,0,0,119.4,0a5.661,5.661,0,0,0-3.67,1.9,5.354,5.354,0,0,0-1.311,3.846A4.69,4.69,0,0,0,118.122,4" transform="translate(-104.322)"/>
      </g>
      <g id="Group_11401" data-name="Group 11401" transform="translate(40.471 19.254)">
        <path id="Fill-4" d="M10.865,15.9H8.647L7.433,12.078H3.209L2.056,15.9H-.1l4.18-13H6.667l4.2,13ZM7.072,10.477l-1.1-3.388c-.114-.352-.334-1.162-.651-2.446H5.277c-.132.554-.334,1.373-.616,2.446L3.578,10.477Z" transform="translate(0.1 -2.715)"/>
        <path id="Fill-5" d="M153.029,46.67a5.279,5.279,0,0,1-1.3,3.775,3.794,3.794,0,0,1-2.886,1.232,2.891,2.891,0,0,1-2.675-1.329v4.919h-2.086V45.174c0-1-.026-2.024-.079-3.08h1.83l.114,1.487h.035a3.7,3.7,0,0,1,5.922-.37A5.1,5.1,0,0,1,153.029,46.67Zm-2.121.07a3.826,3.826,0,0,0-.616-2.253,2.133,2.133,0,0,0-1.813-.924,2.212,2.212,0,0,0-1.4.51,2.357,2.357,0,0,0-.818,1.338,2.849,2.849,0,0,0-.1.634v1.566a2.519,2.519,0,0,0,.625,1.725,2.079,2.079,0,0,0,1.628.7,2.148,2.148,0,0,0,1.83-.906A3.975,3.975,0,0,0,150.908,46.74Z" transform="translate(-131.319 -38.283)"/>
        <path id="Fill-6" d="M275.429,46.67a5.278,5.278,0,0,1-1.3,3.775,3.794,3.794,0,0,1-2.886,1.232,2.89,2.89,0,0,1-2.675-1.329v4.919h-2.086V45.174c0-1-.026-2.024-.079-3.08h1.83l.114,1.487h.035a3.7,3.7,0,0,1,5.922-.37A5.1,5.1,0,0,1,275.429,46.67Zm-2.121.07a3.826,3.826,0,0,0-.616-2.253,2.133,2.133,0,0,0-1.813-.924,2.211,2.211,0,0,0-1.4.51,2.4,2.4,0,0,0-.818,1.338,2.85,2.85,0,0,0-.1.634v1.566a2.52,2.52,0,0,0,.625,1.725,2.079,2.079,0,0,0,1.628.7,2.137,2.137,0,0,0,1.83-.906A3.916,3.916,0,0,0,273.308,46.74Z" transform="translate(-242.948 -38.283)"/>
        <path id="Fill-7" d="M422.552,10.339a3.48,3.48,0,0,1-1.153,2.7,5.117,5.117,0,0,1-3.538,1.135,6.19,6.19,0,0,1-3.362-.81l.484-1.734a5.845,5.845,0,0,0,3.01.81,2.834,2.834,0,0,0,1.83-.528,1.725,1.725,0,0,0,.66-1.417,1.833,1.833,0,0,0-.537-1.329,5.024,5.024,0,0,0-1.8-1c-2.3-.854-3.432-2.094-3.432-3.722a3.3,3.3,0,0,1,1.206-2.622A4.782,4.782,0,0,1,419.12.8a6.28,6.28,0,0,1,2.948.616l-.528,1.69a5.194,5.194,0,0,0-2.5-.6,2.593,2.593,0,0,0-1.725.537,1.561,1.561,0,0,0-.519,1.179,1.58,1.58,0,0,0,.6,1.267,6.714,6.714,0,0,0,1.892,1,6.344,6.344,0,0,1,2.464,1.584,3.293,3.293,0,0,1,.8,2.262" transform="translate(-378.015 -0.8)"/>
        <path id="Fill-8" d="M525.3,21.5h-2.3v4.55c0,1.153.4,1.734,1.214,1.734a3.862,3.862,0,0,0,.924-.1l.062,1.584a4.829,4.829,0,0,1-1.619.229,2.492,2.492,0,0,1-1.927-.757,3.673,3.673,0,0,1-.7-2.526V21.49H519.6V19.932h1.364V18.216l2.042-.616v2.332h2.3V21.5" transform="translate(-473.866 -16.122)"/>
        <path id="Fill-9" d="M606.678,46.8a5.147,5.147,0,0,1-1.232,3.546,4.41,4.41,0,0,1-3.432,1.426,4.224,4.224,0,0,1-3.291-1.364,4.955,4.955,0,0,1-1.223-3.45,5.111,5.111,0,0,1,1.258-3.564A4.392,4.392,0,0,1,602.164,42a4.283,4.283,0,0,1,3.318,1.373A4.892,4.892,0,0,1,606.678,46.8Zm-2.156.044a4.2,4.2,0,0,0-.554-2.209,2.16,2.16,0,0,0-3.784,0,4.765,4.765,0,0,0,0,4.462,2.137,2.137,0,0,0,3.766-.018A4.263,4.263,0,0,0,604.522,46.84Z" transform="translate(-544.911 -38.374)"/>
        <path id="Fill-10" d="M726.725,43.924a3.858,3.858,0,0,0-.66-.053,1.965,1.965,0,0,0-1.7.827,3.139,3.139,0,0,0-.519,1.848v4.919h-2.086V45.042c0-1.082-.018-2.068-.062-2.948h1.813l.079,1.8h.062a3.194,3.194,0,0,1,1.038-1.487,2.533,2.533,0,0,1,1.5-.5,4.38,4.38,0,0,1,.519.035l.009,1.989" transform="translate(-658.182 -38.283)"/>
        <path id="Fill-11" d="M798.234,46.062a4.761,4.761,0,0,1-.079.942h-6.248a2.717,2.717,0,0,0,.906,2.121,3.12,3.12,0,0,0,2.042.651,7.01,7.01,0,0,0,2.526-.44l.326,1.443a7.82,7.82,0,0,1-3.142.581,4.552,4.552,0,0,1-3.423-1.285,4.744,4.744,0,0,1-1.241-3.441,5.377,5.377,0,0,1,1.162-3.529,3.987,3.987,0,0,1,3.274-1.5,3.478,3.478,0,0,1,3.062,1.5,5.09,5.09,0,0,1,.836,2.957Zm-1.989-.537a2.806,2.806,0,0,0-.4-1.6,1.817,1.817,0,0,0-1.654-.871,1.978,1.978,0,0,0-1.654.845,3.131,3.131,0,0,0-.616,1.619Z" transform="translate(-720.38 -38.01)"/>
      </g>
      <g id="Available-on-the" transform="translate(41.246 8.07)">
        <path id="Fill-12" d="M5.094,10.889H4L3.4,9.014H1.328L.756,10.889H-.3L1.75,4.5H3.018ZM3.22,8.222,2.683,6.55c-.053-.167-.158-.572-.326-1.206H2.34c-.07.273-.158.669-.308,1.206L1.5,8.222Z" transform="translate(0.3 -4.166)"/>
        <path id="Fill-13" d="M73.526,24.7l-1.742,4.611H70.79L69.1,24.7h1.1l.783,2.438c.132.4.246.792.334,1.162h.026c.079-.334.194-.722.334-1.162l.774-2.438h1.074" transform="translate(-62.993 -22.588)"/>
        <path id="Fill-14" d="M131.96,28.49l-.079-.528h-.026a1.584,1.584,0,0,1-1.346.634,1.337,1.337,0,0,1-1.408-1.355c0-1.135.986-1.725,2.693-1.725v-.088c0-.607-.326-.906-.959-.906a2.149,2.149,0,0,0-1.206.343l-.211-.669A2.958,2.958,0,0,1,131,23.8c1.206,0,1.813.634,1.813,1.91v1.7a6.134,6.134,0,0,0,.07,1.1Zm-.141-2.3c-1.135,0-1.707.273-1.707.933a.653.653,0,0,0,.7.722.979.979,0,0,0,1-.942Z" transform="translate(-117.713 -21.767)"/>
        <path id="Fill-15" d="M190.907,3.423a.612.612,0,1,1,.642-.616A.6.6,0,0,1,190.907,3.423Zm-.493.757h1.021v4.6h-1.021Z" transform="translate(-173.527 -2.068)"/>
        <path id="Fill-16" d="M223.9.7h1.021V7.414H223.9Z" transform="translate(-204.17 -0.7)"/>
        <path id="Fill-17" d="M255.26,28.4l-.079-.528h-.026a1.584,1.584,0,0,1-1.346.634A1.337,1.337,0,0,1,252.4,27.15c0-1.135.986-1.725,2.693-1.725v-.088c0-.607-.326-.906-.959-.906a2.149,2.149,0,0,0-1.206.343l-.211-.678a2.958,2.958,0,0,1,1.584-.4c1.206,0,1.813.634,1.813,1.91v1.7a7.283,7.283,0,0,0,.062,1.1h-.915Zm-.141-2.3c-1.135,0-1.707.273-1.707.933a.653.653,0,0,0,.7.722.979.979,0,0,0,1-.942Z" transform="translate(-230.162 -21.676)"/>
        <path id="Fill-18" d="M316.9,7.529a1.568,1.568,0,0,1-1.452-.818h-.018l-.062.713H314.5c.026-.37.035-.783.035-1.241V.7h1.03V3.49h.018a1.583,1.583,0,0,1,1.47-.766c1.109,0,1.883.95,1.883,2.332A2.218,2.218,0,0,1,316.9,7.529Zm-.211-4a1.175,1.175,0,0,0-1.126,1.223v.81a1.125,1.125,0,0,0,1.109,1.153c.766,0,1.223-.625,1.223-1.619,0-.933-.475-1.566-1.206-1.566Z" transform="translate(-286.798 -0.7)"/>
        <path id="Fill-19" d="M382.1.7h1.021V7.414H382.1Z" transform="translate(-348.449 -0.7)"/>
        <path id="Fill-20" d="M414.957,26.158h-3.071a1.322,1.322,0,0,0,1.452,1.364,3.461,3.461,0,0,0,1.241-.22l.158.713a3.732,3.732,0,0,1-1.54.282,2.138,2.138,0,0,1-2.3-2.323,2.25,2.25,0,0,1,2.182-2.473A1.94,1.94,0,0,1,415,25.691a1.783,1.783,0,0,1-.044.466Zm-.933-.73c0-.713-.361-1.214-1.012-1.214a1.214,1.214,0,0,0-1.118,1.214Z" transform="translate(-374.714 -21.494)"/>
        <path id="Fill-21" d="M504.518,28.5a2.19,2.19,0,0,1-2.218-2.367,2.242,2.242,0,0,1,2.3-2.438,2.174,2.174,0,0,1,2.218,2.358A2.259,2.259,0,0,1,504.518,28.5Zm.044-4.057c-.739,0-1.214.7-1.214,1.654s.484,1.637,1.206,1.637,1.206-.739,1.206-1.663S505.283,24.448,504.562,24.448Z" transform="translate(-458.071 -21.676)"/>
        <path id="Fill-22" d="M574.331,28.308H573.31V25.659c0-.818-.317-1.223-.933-1.223a1.059,1.059,0,0,0-1.021,1.126V28.3h-1.021V25.017c0-.4-.009-.845-.035-1.32h.9l.044.713h.026a1.657,1.657,0,0,1,1.461-.81c.968,0,1.6.739,1.6,1.945v2.763" transform="translate(-520.087 -21.585)"/>
        <path id="Fill-23" d="M663.29,13.618h-1.126v2.235c0,.572.2.854.6.854a2.238,2.238,0,0,0,.458-.044l.026.774a2.218,2.218,0,0,1-.792.114c-.81,0-1.285-.449-1.285-1.61V13.618H660.5v-.766h.669v-.845l1-.308v1.144H663.3v.774" transform="translate(-602.35 -10.732)"/>
        <path id="Fill-24" d="M712.4,7.423h-1.021V4.792c0-.827-.317-1.241-.933-1.241a1,1,0,0,0-1.021,1.091V7.414H708.4V.7h1.021V3.463h.018a1.548,1.548,0,0,1,1.382-.748c.977,0,1.575.757,1.575,1.962V7.423" transform="translate(-646.035 -0.7)"/>
        <path id="Fill-25" d="M771.157,26.158h-3.071a1.322,1.322,0,0,0,1.452,1.364,3.462,3.462,0,0,0,1.241-.22l.158.713a3.732,3.732,0,0,1-1.54.282,2.138,2.138,0,0,1-2.3-2.323,2.25,2.25,0,0,1,2.182-2.473,1.94,1.94,0,0,1,1.918,2.191A1.783,1.783,0,0,1,771.157,26.158Zm-.933-.73c0-.713-.361-1.214-1.012-1.214a1.207,1.207,0,0,0-1.118,1.214Z" transform="translate(-699.569 -21.494)"/>
      </g>
    </g>
  </g>
</svg>
