<svg xmlns="http://www.w3.org/2000/svg" width="21.02" height="21" viewBox="0 0 21.02 21">
  <path id="price" d="M20.683,13.959l-6.672,6.672a1.314,1.314,0,0,1-1.827,0L.4,8.848A2.428,2.428,0,0,1,.032,7.226V1.314A1.253,1.253,0,0,1,.422.38,1.279,1.279,0,0,1,1.345,0H7.257A2.471,2.471,0,0,1,8.9.369L20.682,12.132a1.3,1.3,0,0,1,.369.923,1.228,1.228,0,0,1-.369.9ZM5.288,2.607a2.533,2.533,0,0,0-1.858.77,2.529,2.529,0,0,0-.77,1.858,2.535,2.535,0,0,0,.77,1.858,2.531,2.531,0,0,0,1.858.77,2.531,2.531,0,0,0,1.858-.77,2.535,2.535,0,0,0,.77-1.858,2.529,2.529,0,0,0-.77-1.858,2.533,2.533,0,0,0-1.858-.77Z" transform="translate(-0.032)" fill="#0d323d"/>
</svg>
