<svg id="Group_9762" data-name="Group 9762" xmlns="http://www.w3.org/2000/svg" width="24.021" height="20.905" viewBox="0 0 24.021 20.905">
  <path id="Path_2985" data-name="Path 2985" d="M38.255,168.806H37v1.442h1.219c.461,0,.922-.119.922-.721C39.139,168.955,38.79,168.806,38.255,168.806Z" transform="translate(-33.88 -156.136)" fill="#0d323d"/>
  <path id="Path_2986" data-name="Path 2986" d="M23.449,26.808H20.81l-7.44-6.469a1.43,1.43,0,1,0-2.718,0l-7.44,6.469H.572A.572.572,0,0,0,0,27.381V38.819a.572.572,0,0,0,.572.572H23.449a.572.572,0,0,0,.572-.572V27.381A.572.572,0,0,0,23.449,26.808ZM11.4,21.2a1.388,1.388,0,0,0,1.22,0l6.446,5.6H4.954ZM6.294,34.093a7.266,7.266,0,0,0,.163,1.1.538.538,0,0,1-.572.476c-.669,0-.721-.647-.721-.863,0-.937-.17-1.316-.84-1.316h-1.2V35.06a.574.574,0,0,1-.61.61.574.574,0,0,1-.61-.61V30.933c0-.543.282-.714.714-.714h2.03c1.449,0,1.836.8,1.836,1.487a1.279,1.279,0,0,1-.921,1.287v.015C6.182,33.1,6.294,33.55,6.294,34.093Zm4.78,1.48H8.152c-.431,0-.714-.171-.714-.714V30.933c0-.543.283-.714.714-.714h2.863c.357,0,.617.1.617.491s-.261.491-.617.491H8.657v1.16h2.067c.32,0,.573.089.573.468s-.252.469-.573.469H8.657v1.294h2.417c.357,0,.617.1.617.491S11.431,35.573,11.074,35.573Zm6.1-.662c0,.483-.209.759-.722.759-.387,0-.513-.082-.669-.327L13.669,32h-.015v3.086a.587.587,0,1,1-1.174,0V30.836c0-.506.245-.714.766-.714a.671.671,0,0,1,.61.32l2.134,3.443H16V30.71a.588.588,0,0,1,1.176,0v4.2Zm4.788-3.665H20.814V35.06a.61.61,0,0,1-1.22,0V31.245H18.442c-.349,0-.632-.179-.632-.513s.283-.513.632-.513h3.525c.35,0,.632.178.632.513S22.316,31.245,21.967,31.245Z" transform="translate(0 -18.486)" fill="#0d323d"/>
</svg>
