<svg xmlns="http://www.w3.org/2000/svg" width="27" height="36" viewBox="0 0 27 36">
  <path id="Path_10413" data-name="Path 10413" d="M4.5,4.5A4.5,4.5,0,0,1,9,0H27a4.5,4.5,0,0,1,4.5,4.5v27A4.5,4.5,0,0,1,27,36H9a4.5,4.5,0,0,1-4.5-4.5Zm10.125,0a1.125,1.125,0,0,0,0,2.25h6.75a1.125,1.125,0,0,0,0-2.25ZM18,24.75A6.75,6.75,0,1,0,11.25,18,6.75,6.75,0,0,0,18,24.75Zm11.25,6.2C27.329,28.856,23.9,27,18,27S8.671,28.858,6.75,30.949V31.5A2.25,2.25,0,0,0,9,33.75H27a2.25,2.25,0,0,0,2.25-2.25Z" transform="translate(-4.5)" fill="#0d323d" fill-rule="evenodd"/>
</svg>
