<svg id="share" xmlns="http://www.w3.org/2000/svg" width="29.769" height="26.578" viewBox="0 0 29.769 26.578">
  <path id="share-2" data-name="share" d="M29.768,9.568a1.022,1.022,0,0,1-.316.748l-8.505,8.505a1.063,1.063,0,0,1-1.811-.748V13.821h-3.72q-1.628,0-2.916.1a21.152,21.152,0,0,0-2.558.357,9.481,9.481,0,0,0-2.209.706A7.82,7.82,0,0,0,5.98,16.138a5.778,5.778,0,0,0-1.329,1.678,9.023,9.023,0,0,0-.805,2.3,14.175,14.175,0,0,0-.291,3.007q0,.914.083,2.043a3.435,3.435,0,0,0,.041.39A3.4,3.4,0,0,1,3.72,26a.618.618,0,0,1-.141.415.485.485,0,0,1-.39.166.569.569,0,0,1-.466-.283,1.854,1.854,0,0,1-.216-.365q-.1-.216-.224-.5t-.174-.4A19.946,19.946,0,0,1,0,17.542,15.121,15.121,0,0,1,.881,12.01Q3.571,5.315,15.416,5.315h3.721V1.063a1.022,1.022,0,0,1,.316-.748,1.042,1.042,0,0,1,1.5,0l8.505,8.505a1.022,1.022,0,0,1,.316.748Z" transform="translate(0 0)" fill="#0d323d"/>
</svg>
