<svg xmlns="http://www.w3.org/2000/svg" width="105.269" height="27.243" viewBox="0 0 105.269 27.243">
  <g id="Group_3" data-name="Group 3" transform="translate(-105 -5)">
    <g id="language-solid" transform="translate(102.7 5.757)">
      <path id="Path_148" data-name="Path 148" d="M10.807,16.5,10,19h1.614Z" transform="translate(-1.485 -2.604)" fill="#fff"/>
      <path id="Path_149" data-name="Path 149" d="M24.9,3H11.985V7.035h3.228V8.65H4.721A2.378,2.378,0,0,0,2.3,11.071v8.878A2.378,2.378,0,0,0,4.721,22.37h.807v4.116l5.085-4.116h5.408v-5.65H24.9A2.378,2.378,0,0,0,27.32,14.3V5.421A2.378,2.378,0,0,0,24.9,3ZM11.017,19.061l-.4-1.291h-2.5l-.484,1.291H5.69l2.663-7.183H10.29l2.663,7.183Zm12.268-6.376V14.3a7.287,7.287,0,0,1-3.148-.807,8.651,8.651,0,0,1-3.228.807l-.081-1.614a6.144,6.144,0,0,0,1.695-.242A5.514,5.514,0,0,1,17.07,9.86h1.695a4.058,4.058,0,0,0,1.291,1.776A4.175,4.175,0,0,0,21.589,8.65H16.747V7.035h2.421V5.421h1.614V7.035h2.663l.081.807a6.136,6.136,0,0,1-1.776,4.6A5.484,5.484,0,0,0,23.284,12.685Z" transform="translate(0 0)" fill="#fff"/>
    </g>
    <text id="Language" transform="translate(137 18)" fill="#fff" font-size="12" font-family="SegoeUI, Segoe UI"><tspan x="0" y="0">Language</tspan></text>
    <text id="_ENGLISH_" data-name="(ENGLISH)" transform="translate(137 29)" fill="#fff" font-size="8" font-family="SegoeUI-Bold, Segoe UI" font-weight="700"><tspan x="0" y="0">(ENGLISH)</tspan></text>
    <path id="Path_150" data-name="Path 150" d="M236.547-1077.142h-6.8l3.559,3.559Z" transform="translate(-26.278 1097.642)" fill="#fff"/>
  </g>
</svg>
