<svg id="vuesax_bold_tick-square" data-name="vuesax/bold/tick-square" xmlns="http://www.w3.org/2000/svg" width="24" height="24" viewBox="0 0 24 24">
  <g id="tick-square">
    <path id="Vector" d="M14.19,0H5.81C2.17,0,0,2.17,0,5.81v8.37C0,17.83,2.17,20,5.81,20h8.37c3.64,0,5.81-2.17,5.81-5.81V5.81C20,2.17,17.83,0,14.19,0Zm.59,7.7L9.11,13.37a.748.748,0,0,1-1.06,0L5.22,10.54A.75.75,0,1,1,6.28,9.48l2.3,2.3,5.14-5.14A.75.75,0,0,1,14.78,7.7Z" transform="translate(2 2)" fill="#0d323d"/>
    <path id="Vector-2" data-name="Vector" d="M0,0H24V24H0Z" transform="translate(24 24) rotate(180)" fill="none" opacity="0"/>
  </g>
</svg>
