<svg id="vuesax_linear_sms" data-name="vuesax/linear/sms" xmlns="http://www.w3.org/2000/svg" xmlns:xlink="http://www.w3.org/1999/xlink" width="24" height="24" viewBox="0 0 24 24">
  <defs>
    <clipPath id="clip-path">
      <path id="Vector" d="M15,17H5c-3,0-5-1.5-5-5V5C0,1.5,2,0,5,0H15c3,0,5,1.5,5,5v7C20,15.5,18,17,15,17Z" transform="translate(2 3.5)" fill="none" stroke="#0d323d" stroke-linecap="round" stroke-linejoin="round" stroke-width="1.5"/>
    </clipPath>
  </defs>
  <g id="sms">
    <g id="Mask_Group_24" data-name="Mask Group 24" clip-path="url(#clip-path)">
      <path id="__TEMP__SVG__" d="M18.928,3.571h-15a2.5,2.5,0,0,0-2.5,2.5V16.785a2.5,2.5,0,0,0,2.5,2.5h15a2.5,2.5,0,0,0,2.5-2.5V6.072a2.5,2.5,0,0,0-2.5-2.5ZM18.3,7.706l-6.428,5a.714.714,0,0,1-.877,0l-6.428-5a.714.714,0,1,1,.877-1.128l5.99,4.659,5.99-4.659A.714.714,0,1,1,18.3,7.706Z" transform="translate(0.572 0.571)" fill="#0d323d"/>
    </g>
    <path id="Vector-2" data-name="Vector" d="M0,0H24V24H0Z" fill="none" opacity="0"/>
  </g>
</svg>
