<svg xmlns="http://www.w3.org/2000/svg" width="36.001" height="36" viewBox="0 0 36.001 36">
  <path id="whatsapp" d="M19.125,33.75a16.727,16.727,0,0,1-8.191-2.109L0,36,4.359,25.066A16.727,16.727,0,0,1,2.25,16.875a16.448,16.448,0,0,1,1.336-6.557,16.7,16.7,0,0,1,8.982-8.982,16.759,16.759,0,0,1,13.114,0,16.7,16.7,0,0,1,8.983,8.983,16.759,16.759,0,0,1,0,13.114,16.7,16.7,0,0,1-8.983,8.983A16.423,16.423,0,0,1,19.125,33.75Zm5.625-13.5H22.5l-1.266,1.125a9.84,9.84,0,0,1-3.885-2.725,9.831,9.831,0,0,1-2.724-3.884L15.75,13.5V11.25a2.06,2.06,0,0,0-.422-1.195,2.673,2.673,0,0,0-.932-.861q-.51-.264-.72-.053l-1.652,1.652q-1.371,1.371-.4,4.271a14.605,14.605,0,0,0,3.691,5.625,14.58,14.58,0,0,0,5.625,3.691q2.9.966,4.271-.4l1.652-1.652q.211-.211-.053-.721a2.673,2.673,0,0,0-.861-.932A2.06,2.06,0,0,0,24.75,20.25Z" fill="#0d323d"/>
</svg>
