<svg xmlns="http://www.w3.org/2000/svg" width="201" height="43" viewBox="0 0 201 43">
  <g id="Group_16217" data-name="Group 16217" transform="translate(-960 -620)">
    <rect id="Rectangle_364" data-name="Rectangle 364" width="43" height="43" rx="10" transform="translate(960 620)" fill="#0d323d"/>
    <text id="WIFI_Enabled" data-name="WIFI Enabled" transform="translate(1022 650)" fill="#515151" font-size="24" font-family="SegoeUI, Segoe UI"><tspan x="0" y="0">WIFI Enabled</tspan></text>
    <path id="wifi" d="M11.714,16.384q-.235,0-1.093-.863t-.858-1.1q0-.376.734-.634a3.827,3.827,0,0,1,1.216-.258,3.827,3.827,0,0,1,1.216.258q.734.258.734.634,0,.235-.858,1.1t-1.093.863ZM14.885,13.2a4.881,4.881,0,0,1-.47-.294,6.6,6.6,0,0,0-1.192-.587,4.023,4.023,0,0,0-3.019,0,6.511,6.511,0,0,0-1.186.587,3.635,3.635,0,0,1-.476.294q-.212,0-1.1-.881t-.885-1.093a.371.371,0,0,1,.117-.27,6.414,6.414,0,0,1,2.3-1.421,7.508,7.508,0,0,1,5.473,0,6.39,6.39,0,0,1,2.3,1.421.371.371,0,0,1,.117.27q0,.212-.887,1.093t-1.1.881Zm3.206-3.194a.488.488,0,0,1-.27-.094A13.89,13.89,0,0,0,14.862,8.1a7.979,7.979,0,0,0-3.148-.583,8.016,8.016,0,0,0-2,.258,9.232,9.232,0,0,0-1.75.623q-.746.364-1.333.728T5.7,9.748a2.75,2.75,0,0,1-.364.258q-.2,0-1.08-.881T3.376,8.033a.359.359,0,0,1,.117-.258A10.732,10.732,0,0,1,7.251,5.367a12.04,12.04,0,0,1,8.926,0,10.732,10.732,0,0,1,3.758,2.408.359.359,0,0,1,.117.258q0,.212-.881,1.093t-1.08.881Zm3.183-3.183a.408.408,0,0,1-.258-.106,15.761,15.761,0,0,0-4.363-2.777,12.842,12.842,0,0,0-4.938-.935,12.761,12.761,0,0,0-4.938.934A15.842,15.842,0,0,0,2.413,6.718a.41.41,0,0,1-.258.106q-.2,0-1.086-.881T.181,4.85A.371.371,0,0,1,.3,4.581,15.281,15.281,0,0,1,5.525,1.2,16.588,16.588,0,0,1,17.9,1.2,15.281,15.281,0,0,1,23.13,4.581a.371.371,0,0,1,.117.27q0,.212-.887,1.093t-1.086.881Z" transform="translate(969.785 633.308)" fill="#fff"/>
  </g>
</svg>
